<?xml version="1.0" encoding="utf-8"?>
<!-- Generator: Adobe Illustrator 19.0.0, SVG Export Plug-In . SVG Version: 6.00 Build 0)  -->
<svg version="1.1" id="Layer_1" xmlns="http://www.w3.org/2000/svg" xmlns:xlink="http://www.w3.org/1999/xlink" x="0px" y="0px"
	 viewBox="0 0 57.2 57.2" style="enable-background:new 0 0 57.2 57.2;" xml:space="preserve">
<style type="text/css">
	.st0{fill:#e84d1c;}
	.st1{clip-path:url(#XMLID_28_);fill:#FFFFFF;}
</style>
<g id="XMLID_342_">
	<circle id="XMLID_237_" class="st0" cx="28.6" cy="28.6" r="28.6"/>
	<g id="XMLID_293_">
		<g id="XMLID_307_">
			<defs>
				<rect id="XMLID_294_" x="10.1" y="13" width="37" height="28.5"/>
			</defs>
			<clipPath id="XMLID_28_">
				<use xlink:href="#XMLID_294_"  style="overflow:visible;"/>
			</clipPath>
			<path id="XMLID_309_" class="st1" d="M31.1,18.4c1.5,0.8,2.7,2.3,2.9,4.1c0.6,0.2,1.3,0.4,2,0.3c2.6-0.2,4.5-2.4,4.4-4.9
				c-0.2-2.6-2.4-4.5-4.9-4.4C33,13.7,31,15.8,31.1,18.4L31.1,18.4z M28.2,28.3c2.6,0,4.7-2.1,4.7-4.7c0-2.6-2.1-4.7-4.7-4.7
				c-2.6,0-4.7,2.1-4.7,4.7C23.5,26.2,25.6,28.3,28.2,28.3L28.2,28.3z M30.2,29.1h-4c-3.3,0-6,2.7-6,6V40l0,0.1l0.3,0.1
				c3.2,1,5.9,1.3,8.1,1.3c4.4,0,7-1.3,7.1-1.3l0.3-0.2h0v-4.9C36.2,31.8,33.5,29.1,30.2,29.1L30.2,29.1z M38.6,24.3h-3.9
				c0,1.6-0.7,3-1.8,4c2.9,0.9,5.1,3.6,5.1,6.8v1.5c3.9-0.1,6.1-1.2,6.3-1.3l0.3-0.2h0v-4.9C44.6,27,41.9,24.3,38.6,24.3L38.6,24.3z
				 M20,22.6c0.9,0,1.8-0.2,2.5-0.6c0.3-1.5,1.2-2.7,2.4-3.6c0-0.1,0-0.2,0-0.3c0.1-2.6-1.9-4.8-4.4-4.9c-2.6-0.1-4.8,1.9-4.9,4.4
				C15.5,20.3,17.5,22.5,20,22.6L20,22.6z M23.8,28.3c-1.1-1-1.7-2.4-1.8-4c-0.1,0-0.3,0-0.4,0h-4c-3.3,0-6,2.7-6,6v4.9l0,0.1
				l0.3,0.1c2.5,0.8,4.8,1.2,6.7,1.3v-1.5C18.7,31.9,20.9,29.2,23.8,28.3L23.8,28.3z M24.2,28.3"/>
		</g>
	</g>
</g>
</svg>
