<?xml version="1.0" encoding="utf-8"?>
<!-- Generator: Adobe Illustrator 19.0.0, SVG Export Plug-In . SVG Version: 6.00 Build 0)  -->
<svg version="1.1" id="Layer_1" xmlns="http://www.w3.org/2000/svg" xmlns:xlink="http://www.w3.org/1999/xlink" x="0px" y="0px"
	 viewBox="0 0 57.2 57.2" style="enable-background:new 0 0 57.2 57.2;" xml:space="preserve">
<style type="text/css">
	.st0{fill:#e84d1c;}
	.st1{fill:#FFFFFF;}
</style>
<g id="XMLID_339_">
	<circle id="XMLID_277_" class="st0" cx="28.6" cy="28.6" r="28.6"/>
	<g id="XMLID_238_">
		<path id="XMLID_278_" class="st1" d="M19,34.7c0.1-0.1,0.2-0.3,0.2-0.5s-0.1-0.4-0.2-0.5c-0.1-0.1-0.3-0.2-0.5-0.2h-7
			c-0.2,0-0.4,0.1-0.5,0.2c-0.1,0.1-0.2,0.3-0.2,0.5s0.1,0.4,0.2,0.5c0.1,0.1,0.3,0.2,0.5,0.2h7C18.7,34.9,18.9,34.9,19,34.7
			L19,34.7z M19,34.7"/>
		<path id="XMLID_275_" class="st1" d="M34.7,18.8c0.2,0,0.4-0.1,0.5-0.2c0.1-0.1,0.2-0.3,0.2-0.5v-7c0-0.2-0.1-0.4-0.2-0.5
			c-0.1-0.1-0.3-0.2-0.5-0.2c-0.2,0-0.4,0.1-0.5,0.2C34,10.7,34,10.9,34,11.1v7c0,0.2,0.1,0.4,0.2,0.5
			C34.3,18.8,34.4,18.8,34.7,18.8L34.7,18.8z M34.7,18.8"/>
		<path id="XMLID_272_" class="st1" d="M19.9,37c-0.2,0-0.4,0.1-0.5,0.2l-5.6,5.6c-0.1,0.1-0.2,0.3-0.2,0.5c0,0.2,0.1,0.4,0.2,0.5
			C14,44,14.2,44,14.3,44c0.2,0,0.4-0.1,0.5-0.2l5.6-5.6c0.1-0.1,0.2-0.3,0.2-0.5c0-0.2-0.1-0.4-0.2-0.5C20.3,37.1,20.1,37,19.9,37
			L19.9,37z M19.9,37"/>
		<path id="XMLID_269_" class="st1" d="M38.2,20.2c0.2,0,0.3-0.1,0.5-0.2l5.6-5.6c0.1-0.1,0.2-0.3,0.2-0.5c0-0.2-0.1-0.4-0.2-0.5
			c-0.1-0.1-0.3-0.2-0.5-0.2c-0.2,0-0.4,0.1-0.5,0.2L37.7,19c-0.1,0.1-0.2,0.3-0.2,0.5c0,0.2,0.1,0.4,0.2,0.5
			C37.8,20.2,38,20.2,38.2,20.2L38.2,20.2z M38.2,20.2"/>
		<path id="XMLID_266_" class="st1" d="M37.7,25.2c-0.3-0.3-0.7-0.6-1.2-0.9l-0.4,5.2l6,6c0.4,0.4,0.6,0.9,0.6,1.5
			c0,0.6-0.2,1.1-0.6,1.5l-3.2,3.2c-0.4,0.4-0.9,0.6-1.5,0.6c-0.6,0-1.1-0.2-1.5-0.6l-6-6l-5.2,0.4c0.3,0.5,0.6,0.9,0.9,1.2l7.3,7.3
			c1.2,1.2,2.7,1.9,4.5,1.9c1.8,0,3.2-0.6,4.4-1.8l3.2-3.2c1.2-1.2,1.9-2.7,1.9-4.4c0-1.7-0.6-3.2-1.8-4.5L37.7,25.2z M37.7,25.2"/>
		<path id="XMLID_263_" class="st1" d="M47.1,22.5c-0.1-0.1-0.3-0.2-0.5-0.2h-7c-0.2,0-0.4,0.1-0.5,0.2c-0.1,0.1-0.2,0.3-0.2,0.5
			c0,0.2,0.1,0.4,0.2,0.5c0.1,0.1,0.3,0.2,0.5,0.2h7c0.2,0,0.4-0.1,0.5-0.2c0.1-0.1,0.2-0.3,0.2-0.5C47.3,22.8,47.2,22.6,47.1,22.5
			L47.1,22.5z M47.1,22.5"/>
		<path id="XMLID_260_" class="st1" d="M19.2,15.6c0.4-0.4,0.9-0.6,1.5-0.6c0.6,0,1.1,0.2,1.5,0.6l6,6l5.2-0.4
			c-0.3-0.5-0.6-0.9-0.9-1.2l-7.3-7.3c-1.2-1.2-2.7-1.9-4.5-1.9c-1.8,0-3.2,0.6-4.4,1.8l-3.2,3.2c-1.2,1.2-1.9,2.7-1.9,4.4
			c0,1.7,0.6,3.2,1.8,4.5l7.4,7.4c0.3,0.3,0.7,0.6,1.2,0.9l0.4-5.3l-6-6c-0.4-0.4-0.6-0.9-0.6-1.5c0-0.6,0.2-1.1,0.6-1.5L19.2,15.6z
			 M19.2,15.6"/>
		<path id="XMLID_257_" class="st1" d="M23.4,38.4c-0.2,0-0.4,0.1-0.5,0.2c-0.1,0.1-0.2,0.3-0.2,0.5v7c0,0.2,0.1,0.4,0.2,0.5
			c0.1,0.1,0.3,0.2,0.5,0.2c0.2,0,0.4-0.1,0.5-0.2c0.1-0.1,0.2-0.3,0.2-0.5v-7c0-0.2-0.1-0.4-0.2-0.5C23.8,38.5,23.7,38.4,23.4,38.4
			L23.4,38.4z M23.4,38.4"/>
	</g>
</g>
</svg>
