<?xml version="1.0" encoding="utf-8"?>
<!-- Generator: Adobe Illustrator 19.0.0, SVG Export Plug-In . SVG Version: 6.00 Build 0)  -->
<svg version="1.1" id="Layer_1" xmlns="http://www.w3.org/2000/svg" xmlns:xlink="http://www.w3.org/1999/xlink" x="0px" y="0px"
	 viewBox="0 0 57.2 57.2" style="enable-background:new 0 0 57.2 57.2;" xml:space="preserve">
<style type="text/css">
	.st0{fill:#e84d1c;}
	.st1{fill:#FFFFFF;}
</style>
<g id="XMLID_332_">
	<circle id="XMLID_305_" class="st0" cx="28.6" cy="28.6" r="28.6"/>
	<g id="XMLID_329_">
		<path id="XMLID_389_" class="st1" d="M16.5,40.3c0-6.7,0-13.5,0-20.2c-1.5,0-2.9,0-4.4,0c0-1.1,0-2,0-3c2.4,0,4.9,0,7.3,0
			c0,7.7,0,15.5,0,23.3C18.5,40.3,17.5,40.3,16.5,40.3z"/>
		<path id="XMLID_388_" class="st1" d="M9,21.8c0.1,0,0.2,0,0.3-0.1c1.8,0,3.6,0,5.3,0c0.4,0,0.4,0.3,0.4,0.5c0,3.6,0,7.3,0,10.9
			c0,2.2,0,4.3,0,6.5c0,0.2,0,0.4,0,0.6c-1,0-2,0-3,0c0-5.1,0-10.2,0-15.4c-1,0-2,0-3.1,0C9,23.8,9,22.8,9,21.8z"/>
		<path id="XMLID_331_" class="st1" d="M48.2,32c-4.6,0-9.1,0-13.7,0c-0.3,0-0.5,0-0.8,0c-2-0.1-3.4-1.7-3.2-3.7
			c0.1-2,1.5-3.4,3.4-3.5c1.7-0.1,3.2,1.1,3.6,2.9c0.1,0.3,0.1,0.7,0.2,1c1,0,1.9,0,2.9,0c0-1.2-0.2-2.2-0.7-3.2
			c-1.7-3.5-6-4.8-9.2-2.8c-2.5,1.6-3.7,4.6-2.9,7.5c0.8,2.8,3.3,4.7,6.3,4.7c4.7,0,9.4,0,14.1,0V32z"/>
		<path id="XMLID_330_" class="st1" d="M48.2,36.9c-4.6,0-9.1,0-13.7,0c-0.7,0-1.3-0.1-2-0.2c-4.1-0.6-7.8-4.7-6.7-9.7
			c1-4.8,4.9-7.6,9.7-6.9c3.3,0.4,6,3.1,6.8,6.7c0.1,0.6,0.2,1.3,0.3,2c1,0,1.9,0,2.9,0c0-0.1,0-0.2,0-0.3c0-0.5-0.1-1-0.1-1.5
			c-0.5-3.1-1.8-5.7-4.3-7.6c-5.2-4-12.4-3-16.1,2.4c-2.4,3.4-3.1,7.2-1.5,11.2c1.7,4.3,5.9,7,10.7,7c4.7,0,9.4,0,14.1,0V36.9z"/>
	</g>
</g>
</svg>
