<?xml version="1.0" encoding="utf-8"?>
<!-- Generator: Adobe Illustrator 19.0.0, SVG Export Plug-In . SVG Version: 6.00 Build 0)  -->
<svg version="1.1" id="Layer_1" xmlns="http://www.w3.org/2000/svg" xmlns:xlink="http://www.w3.org/1999/xlink" x="0px" y="0px"
	 viewBox="0 0 57.2 57.2" style="enable-background:new 0 0 57.2 57.2;" xml:space="preserve">
<style type="text/css">
	.st0{fill:#e84d1c;}
	.st1{clip-path:url(#XMLID_28_);fill:#FFFFFF;}
</style>
<g id="XMLID_340_">
	<circle id="XMLID_256_" class="st0" cx="28.6" cy="28.6" r="28.6"/>
	<g id="XMLID_281_">
		<g id="XMLID_286_">
			<defs>
				<rect id="XMLID_280_" x="13.2" y="12.5" width="31.6" height="31.7"/>
			</defs>
			<clipPath id="XMLID_28_">
				<use xlink:href="#XMLID_280_"  style="overflow:visible;"/>
			</clipPath>
			<path id="XMLID_288_" class="st1" d="M43.7,37.1l-4.8-4.8c-1-1-2.5-0.9-3.5,0.1l-2.4,2.4c-0.2-0.1-0.3-0.2-0.5-0.3
				c-1.5-0.9-3.6-2-5.8-4.2c-2.2-2.2-3.4-4.3-4.2-5.9c-0.1-0.2-0.2-0.3-0.3-0.5l1.6-1.6l0.8-0.8c1-1,1-2.6,0.1-3.5l-4.8-4.8
				c-1-1-2.5-0.9-3.5,0.1l-1.4,1.4l0,0c-0.5,0.6-0.8,1.3-1.1,2c-0.3,0.7-0.4,1.3-0.5,2c-0.6,5.3,1.8,10.1,8.3,16.6
				c9,9,16.3,8.4,16.6,8.3c0.7-0.1,1.3-0.2,2-0.5c0.7-0.3,1.4-0.7,2-1.1l0,0l1.4-1.3C44.7,39.7,44.7,38.1,43.7,37.1L43.7,37.1z
				 M43.7,37.1"/>
		</g>
	</g>
</g>
</svg>
