<?xml version="1.0" encoding="utf-8"?>
<!-- Generator: Adobe Illustrator 19.0.0, SVG Export Plug-In . SVG Version: 6.00 Build 0)  -->
<svg version="1.1" id="Layer_1" xmlns="http://www.w3.org/2000/svg" xmlns:xlink="http://www.w3.org/1999/xlink" x="0px" y="0px"
	 viewBox="0 0 98.1 98" style="enable-background:new 0 0 98.1 98;" xml:space="preserve">
<style type="text/css">
	.st0{fill:#FFFFFF;stroke:#F62022;stroke-miterlimit:10;}
</style>
<circle id="XMLID_40_" class="st0" cx="49.1" cy="49.1" r="48.5"/>
<g id="XMLID_42_">
	<path d="M49.9,53.6c0.8-0.1,1.6-0.5,2.1-1.2l7.5-10.4c0.2-0.3,0.2-0.8-0.1-1c-0.3-0.3-0.7-0.3-1-0.1L48,48.5
		c-0.7,0.5-1.1,1.3-1.2,2.1c-0.1,0.8,0.2,1.6,0.8,2.2c0.5,0.5,1.3,0.8,2,0.8C49.8,53.6,49.9,53.6,49.9,53.6L49.9,53.6z M48.5,50.7
		c0-0.4,0.2-0.7,0.5-0.9l6.3-4.6l-4.6,6.3c-0.2,0.3-0.6,0.5-0.9,0.5c-0.4,0-0.7-0.1-1-0.4C48.6,51.4,48.4,51.1,48.5,50.7L48.5,50.7z
		 M48.5,50.7"/>
	<path d="M67.9,38.9C67.8,38.9,67.8,38.9,67.9,38.9C67.8,38.8,67.8,38.8,67.9,38.9C67,37.4,66,36.1,65,35l1.7-1.7l1.1,1.1l3.4-3.4
		l-3.4-3.4L64.4,31l1.1,1.1l-1.7,1.7c-1.2-1.1-2.5-2-3.8-2.9c0,0,0,0,0,0c0,0,0,0-0.1,0c-2.5-1.4-5.3-2.4-8.2-2.7v-1h1.2
		c1.1,0,2-0.9,2-2c0-1.1-0.9-2-2-2h-7.2c-1.1,0-2,0.9-2,2c0,1.1,0.9,2,2,2h1.2v0.9c-0.9,0.1-1.7,0.2-2.6,0.4c-0.4,0.1-0.7,0.5-0.6,1
		c0.1,0.4,0.5,0.7,1,0.6c0.7-0.2,1.5-0.3,2.2-0.4l0.9-0.1c0.3,0,0.5,0,0.7,0v1.6c0,0.4,0.4,0.8,0.8,0.8c0.4,0,0.8-0.4,0.8-0.8v-1.6
		c3,0.1,5.8,0.9,8.4,2.3l-0.8,1.4c-0.2,0.4-0.1,0.9,0.3,1.1c0.1,0.1,0.3,0.1,0.4,0.1c0.3,0,0.5-0.1,0.7-0.4l0.8-1.4
		c2.5,1.6,4.6,3.7,6.2,6.2l-1.4,0.8c-0.4,0.2-0.5,0.7-0.3,1.1c0.1,0.3,0.4,0.4,0.7,0.4c0.1,0,0.3,0,0.4-0.1l1.4-0.8
		c1.3,2.6,2.2,5.4,2.3,8.5h-1.6c-0.4,0-0.8,0.4-0.8,0.8c0,0.4,0.4,0.8,0.8,0.8h1.6c-0.1,3.1-0.9,5.9-2.3,8.5l-1.4-0.8
		c-0.4-0.2-0.9-0.1-1.1,0.3c-0.2,0.4-0.1,0.9,0.3,1.1l1.4,0.8c-1.6,2.5-3.7,4.6-6.2,6.2L59,65.2c-0.2-0.4-0.7-0.5-1.1-0.3
		c-0.4,0.2-0.5,0.7-0.3,1.1l0.8,1.4c-2.5,1.3-5.4,2.1-8.4,2.3v-1.6c0-0.4-0.4-0.8-0.8-0.8c-0.4,0-0.8,0.4-0.8,0.8v1.6
		c-1.3,0-2.6-0.2-3.8-0.5c-0.4-0.1-0.9,0.2-1,0.6c-0.1,0.4,0.2,0.9,0.6,1c1.6,0.4,3.2,0.6,4.8,0.6c0,0,0.1,0,0.1,0c0,0,0,0,0,0
		c0,0,0,0,0,0c3.8,0,7.5-1.1,10.6-2.9c0,0,0.1,0,0.1,0c0,0,0,0,0,0c3.2-1.9,5.9-4.6,7.8-7.8c0,0,0,0,0-0.1c0,0,0,0,0-0.1
		c1.8-3.2,2.9-6.8,2.9-10.8C70.7,45.7,69.7,42.1,67.9,38.9L67.9,38.9z M67.8,29.9l1.1,1.1l-1.1,1.1L66.7,31L67.8,29.9z M48.5,28.1
		v-2.4h-2.8c-0.2,0-0.4-0.2-0.4-0.4s0.2-0.4,0.4-0.4h7.2c0.2,0,0.4,0.2,0.4,0.4s-0.2,0.4-0.4,0.4h-2.8v2.4c-0.3,0-0.5,0-0.8,0
		c0,0,0,0-0.1,0c0,0,0,0-0.1,0c-0.1,0-0.3,0-0.4,0C48.6,28.1,48.6,28.1,48.5,28.1L48.5,28.1z M48.5,28.1"/>
	<path d="M42.1,34.4h-4c-0.4,0-0.8,0.4-0.8,0.8c0,0.4,0.4,0.8,0.8,0.8h4c0.4,0,0.8-0.4,0.8-0.8C42.9,34.8,42.5,34.4,42.1,34.4
		L42.1,34.4z M42.1,34.4"/>
	<path d="M42.1,40.1h-8c-0.4,0-0.8,0.4-0.8,0.8c0,0.4,0.4,0.8,0.8,0.8h8c0.4,0,0.8-0.4,0.8-0.8C42.9,40.4,42.5,40.1,42.1,40.1
		L42.1,40.1z M42.1,40.1"/>
	<path d="M42.1,45.6h-12c-0.4,0-0.8,0.4-0.8,0.8c0,0.4,0.4,0.8,0.8,0.8h12c0.4,0,0.8-0.4,0.8-0.8C42.9,46,42.5,45.6,42.1,45.6
		L42.1,45.6z M42.1,45.6"/>
	<path d="M42.1,51.2H26.9c-0.4,0-0.8,0.4-0.8,0.8c0,0.4,0.4,0.8,0.8,0.8h15.2c0.4,0,0.8-0.4,0.8-0.8C42.9,51.6,42.5,51.2,42.1,51.2
		L42.1,51.2z M42.1,51.2"/>
	<path d="M42.1,56.9H31.7c-0.4,0-0.8,0.4-0.8,0.8c0,0.4,0.4,0.8,0.8,0.8h10.4c0.4,0,0.8-0.4,0.8-0.8C42.9,57.2,42.5,56.9,42.1,56.9
		L42.1,56.9z M42.1,56.9"/>
	<path d="M42.1,62.4h-5.6c-0.4,0-0.8,0.4-0.8,0.8c0,0.4,0.4,0.8,0.8,0.8h5.6c0.4,0,0.8-0.4,0.8-0.8C42.9,62.8,42.5,62.4,42.1,62.4
		L42.1,62.4z M42.1,62.4"/>
</g>
</svg>
