<?xml version="1.0" encoding="utf-8"?>
<!-- Generator: Adobe Illustrator 19.0.0, SVG Export Plug-In . SVG Version: 6.00 Build 0)  -->
<svg version="1.1" id="Layer_1" xmlns="http://www.w3.org/2000/svg" xmlns:xlink="http://www.w3.org/1999/xlink" x="0px" y="0px"
	 viewBox="0 0 84 83.9" style="enable-background:new 0 0 84 83.9;" xml:space="preserve">
<style type="text/css">
	.st0{fill:#FFFFFF;stroke:#F62022;stroke-miterlimit:10;}
</style>
<circle id="XMLID_40_" class="st0" cx="41.9" cy="42.1" r="41.4"/>
<g id="XMLID_1_">
	<path id="XMLID_28_" d="M34.3,32.4c-0.6,0.5-0.9,1.1-0.9,1.9v2.2c0,0.5,0.4,0.9,0.9,0.9c0.5,0,0.9-0.4,0.9-0.9v-2.2
		c0-0.2,0.1-0.4,0.2-0.5c1.9-1.6,3.9-2.6,4.3-2.8c0.3-0.2,0.6-0.5,0.6-0.9V27c0-0.3-0.2-0.6-0.4-0.7c-0.2-0.1-0.2-0.3-0.2-0.5v-3.2
		c0-1.1,0.9-2,2-2h0.7c1.1,0,2,0.9,2,2v3.2c0,0.2-0.1,0.4-0.2,0.5c-0.2,0.2-0.4,0.4-0.4,0.7v3.1c0,0.4,0.2,0.7,0.6,0.9
		c0.4,0.2,2.4,1.2,4.3,2.8c0.2,0.1,0.2,0.3,0.2,0.5v2.2c0,0.5,0.4,0.9,0.9,0.9c0.5,0,0.9-0.4,0.9-0.9v-2.2c0-0.7-0.3-1.4-0.9-1.9
		c-1.7-1.4-3.4-2.4-4.3-2.8v-2.2c0.4-0.4,0.6-1,0.6-1.6v-3.2c0-2.1-1.7-3.7-3.7-3.7h-0.7c-2.1,0-3.7,1.7-3.7,3.7v3.2
		c0,0.6,0.2,1.2,0.6,1.6v2.2C37.7,30.1,36,31.1,34.3,32.4L34.3,32.4z M34.3,32.4"/>
	<path id="XMLID_25_" d="M62.9,57.3c0.5,0,0.9-0.4,0.9-0.9v-2.2c0-0.7-0.3-1.4-0.9-1.9c-1.7-1.4-3.4-2.4-4.3-2.8v-2.2
		c0.4-0.4,0.6-1,0.6-1.6v-3.2c0-2.1-1.7-3.7-3.7-3.7h-0.7c-2.1,0-3.7,1.7-3.7,3.7v3.2c0,0.6,0.2,1.2,0.6,1.6v2.2
		c-0.8,0.4-2.6,1.4-4.3,2.8c-0.6,0.5-0.9,1.1-0.9,1.9v2.2c0,0.5,0.4,0.9,0.9,0.9c0.5,0,0.9-0.4,0.9-0.9v-2.2c0-0.2,0.1-0.4,0.2-0.5
		c1.9-1.6,3.9-2.6,4.3-2.8c0.3-0.2,0.6-0.5,0.6-0.9V47c0-0.3-0.2-0.6-0.4-0.7c-0.2-0.1-0.2-0.3-0.2-0.5v-3.2c0-1.1,0.9-2,2-2h0.7
		c1.1,0,2,0.9,2,2v3.2c0,0.2-0.1,0.4-0.2,0.5c-0.2,0.2-0.4,0.4-0.4,0.7v3.1c0,0.4,0.2,0.7,0.6,0.9c0.4,0.2,2.4,1.2,4.3,2.8
		c0.2,0.1,0.2,0.3,0.2,0.5v2.2C62,57,62.4,57.3,62.9,57.3L62.9,57.3z M62.9,57.3"/>
	<path id="XMLID_22_" d="M36.6,52.4c-1.7-1.4-3.4-2.4-4.3-2.8v-2.2c0.4-0.4,0.6-1,0.6-1.6v-3.2c0-2.1-1.7-3.7-3.7-3.7h-0.7
		c-2.1,0-3.7,1.7-3.7,3.7v3.2c0,0.6,0.2,1.2,0.6,1.6v2.2c-0.8,0.4-2.6,1.4-4.3,2.8c-0.6,0.5-0.9,1.1-0.9,1.9v2.2
		c0,0.5,0.4,0.9,0.9,0.9c0.5,0,0.9-0.4,0.9-0.9v-2.2c0-0.2,0.1-0.4,0.2-0.5c1.9-1.6,3.9-2.6,4.3-2.8c0.3-0.2,0.6-0.5,0.6-0.9V47
		c0-0.3-0.2-0.6-0.4-0.7c-0.2-0.1-0.2-0.3-0.2-0.5v-3.2c0-1.1,0.9-2,2-2h0.7c1.1,0,2,0.9,2,2v3.2c0,0.2-0.1,0.4-0.2,0.5
		c-0.2,0.2-0.4,0.4-0.4,0.7v3.1c0,0.4,0.2,0.7,0.6,0.9c0.4,0.2,2.4,1.2,4.3,2.8c0.2,0.1,0.2,0.3,0.2,0.5v2.2c0,0.5,0.4,0.9,0.9,0.9
		c0.5,0,0.9-0.4,0.9-0.9v-2.2C37.5,53.6,37.1,52.9,36.6,52.4L36.6,52.4z M36.6,52.4"/>
	<path id="XMLID_19_" d="M47,47.2c0.1,0.1,0.3,0.1,0.4,0.1c0.3,0,0.6-0.2,0.8-0.4c0.2-0.4,0.1-1-0.3-1.2L43,42.8v-5.7
		c0-0.5-0.4-0.9-0.9-0.9c-0.5,0-0.9,0.4-0.9,0.9v5.7l-4.9,2.8c-0.4,0.2-0.6,0.8-0.3,1.2c0.2,0.3,0.5,0.4,0.8,0.4
		c0.2,0,0.3,0,0.4-0.1l4.9-2.8L47,47.2z M47,47.2"/>
</g>
</svg>
