<?xml version="1.0" encoding="utf-8"?>
<!-- Generator: Adobe Illustrator 19.0.0, SVG Export Plug-In . SVG Version: 6.00 Build 0)  -->
<svg version="1.1" id="Layer_1" xmlns="http://www.w3.org/2000/svg" xmlns:xlink="http://www.w3.org/1999/xlink" x="0px" y="0px"
	 viewBox="0 0 57.2 57.2" style="enable-background:new 0 0 57.2 57.2;" xml:space="preserve">
<style type="text/css">
	.st0{fill:#e84d1c;}
	.st1{fill:#FFFFFF;}
</style>
<g id="XMLID_336_">
	<circle id="XMLID_279_" class="st0" cx="28.6" cy="28.6" r="28.6"/>
	<g id="XMLID_337_">
		<path id="XMLID_338_" class="st1" d="M14.3,39.9h5.3v4.5c0,0.2,0.1,0.4,0.2,0.5c0.1,0.1,0.3,0.2,0.5,0.2h3.9
			c0.2,0,0.4-0.1,0.5-0.2c0.1-0.1,0.2-0.3,0.2-0.5v-4.5h11.9c0.2,0,0.4-0.1,0.5-0.2s0.2-0.3,0.2-0.5v-3c0-0.2-0.1-0.4-0.2-0.5
			c-0.1-0.1-0.3-0.2-0.5-0.2H25v-2.8h8c3.1,0,5.7-1,7.7-2.9c2-1.9,3-4.4,3-7.4c0-3-1-5.5-3-7.4C38.7,13,36.2,12,33,12H20.3
			c-0.2,0-0.4,0.1-0.5,0.2c-0.1,0.1-0.2,0.3-0.2,0.5v14.8h-5.3c-0.2,0-0.4,0.1-0.5,0.2c-0.1,0.1-0.2,0.3-0.2,0.5v3.5
			c0,0.2,0.1,0.4,0.2,0.5c0.1,0.1,0.3,0.2,0.5,0.2h5.3v2.8h-5.3c-0.2,0-0.4,0.1-0.5,0.2c-0.1,0.1-0.2,0.3-0.2,0.5v3
			c0,0.2,0.1,0.4,0.2,0.5C13.9,39.9,14.1,39.9,14.3,39.9L14.3,39.9z M25,17h7.5c1.7,0,3,0.5,4,1.5c1,1,1.5,2.2,1.5,3.8
			c0,1.6-0.5,2.8-1.5,3.8c-1,1-2.4,1.5-4,1.5H25V17z M25,17"/>
	</g>
</g>
</svg>
