<?xml version="1.0" encoding="utf-8"?>
<!-- Generator: Adobe Illustrator 19.0.0, SVG Export Plug-In . SVG Version: 6.00 Build 0)  -->
<svg version="1.1" id="Layer_1" xmlns="http://www.w3.org/2000/svg" xmlns:xlink="http://www.w3.org/1999/xlink" x="0px" y="0px"
	 viewBox="0 0 57.2 57.2" style="enable-background:new 0 0 57.2 57.2;" xml:space="preserve">
<style type="text/css">
	.st0{fill:#e84d1c;}
	.st1{fill:#FFFFFF;}
</style>
<g id="XMLID_341_">
	<circle id="XMLID_255_" class="st0" cx="28.6" cy="28.6" r="28.6"/>
	<g id="XMLID_284_">
		<path id="XMLID_37_" class="st1" d="M28.7,13.5c-9.5,0-17.3,6.1-17.3,13.6c0,3.6,1.7,6.8,4.6,9.2c-0.1,2.4-0.6,5.5-2.3,7.2
			c3.3,0,6.7-2.2,8.7-3.7c2,0.6,4.1,1,6.4,1c9.5,0,17.3-6.1,17.3-13.6C45.9,19.6,38.2,13.5,28.7,13.5z M21.3,30.8
			c-1.4,0-2.5-1.1-2.5-2.5c0-1.4,1.1-2.5,2.5-2.5c1.4,0,2.5,1.1,2.5,2.5C23.7,29.7,22.6,30.8,21.3,30.8L21.3,30.8z M28.7,30.8
			c-1.4,0-2.5-1.1-2.5-2.5c0-1.4,1.1-2.5,2.5-2.5c1.4,0,2.5,1.1,2.5,2.5C31.1,29.7,30,30.8,28.7,30.8L28.7,30.8z M36.1,30.8
			c-1.4,0-2.5-1.1-2.5-2.5c0-1.4,1.1-2.5,2.5-2.5c1.4,0,2.5,1.1,2.5,2.5C38.5,29.7,37.4,30.8,36.1,30.8L36.1,30.8z M36.1,30.8"/>
	</g>
</g>
</svg>
