<?xml version="1.0" encoding="utf-8"?>
<!-- Generator: Adobe Illustrator 19.0.0, SVG Export Plug-In . SVG Version: 6.00 Build 0)  -->
<svg version="1.1" id="Layer_1" xmlns="http://www.w3.org/2000/svg" xmlns:xlink="http://www.w3.org/1999/xlink" x="0px" y="0px"
	 viewBox="0 0 83.9 83.8" style="enable-background:new 0 0 83.9 83.8;" xml:space="preserve">
<style type="text/css">
	.st0{fill:#FFFFFF;stroke:#F62022;stroke-miterlimit:10;}
	.st1{fill:#070606;}
</style>
<g id="XMLID_226_">
	<circle id="XMLID_213_" class="st0" cx="42" cy="41.9" r="41.4"/>
	<g id="XMLID_210_">
		<path id="XMLID_225_" class="st1" d="M33.8,24.1l0.7,1.8c0.1,0.3,0.4,0.5,0.7,0.5c0.1,0,0.2,0,0.3-0.1c0.4-0.2,0.6-0.6,0.4-1
			l-0.7-1.8c-0.2-0.4-0.6-0.6-1-0.4C33.8,23.2,33.6,23.7,33.8,24.1L33.8,24.1z"/>
		<path id="XMLID_224_" class="st1" d="M32.8,21.7c0.1,0.3,0.4,0.5,0.7,0.5c0.1,0,0.2,0,0.3-0.1c0.4-0.2,0.6-0.6,0.4-1l-1.1-2.6
			c-0.2-0.4-0.6-0.6-1-0.4c-0.4,0.2-0.6,0.6-0.4,1L32.8,21.7L32.8,21.7z"/>
		<path id="XMLID_223_" class="st1" d="M18.6,33.1l7.7,3.2c0.1,0,0.2,0.1,0.3,0.1c0.3,0,0.6-0.2,0.7-0.5c0.2-0.4,0-0.9-0.4-1
			l-7.7-3.2c-0.4-0.2-0.9,0-1,0.4C18,32.5,18.2,32.9,18.6,33.1L18.6,33.1z"/>
		<path id="XMLID_222_" class="st1" d="M27.4,48c-0.2-0.4-0.6-0.6-1-0.4l-4.7,1.9c-0.4,0.2-0.6,0.6-0.4,1c0.1,0.3,0.4,0.5,0.7,0.5
			c0.1,0,0.2,0,0.3-0.1l4.7-1.9C27.3,48.8,27.5,48.4,27.4,48L27.4,48z"/>
		<path id="XMLID_221_" class="st1" d="M19.3,50.5l-0.7,0.3c-0.4,0.2-0.6,0.6-0.4,1c0.1,0.3,0.4,0.5,0.7,0.5c0.1,0,0.2,0,0.3-0.1
			l0.7-0.3c0.4-0.2,0.6-0.6,0.4-1C20.1,50.5,19.7,50.3,19.3,50.5L19.3,50.5z"/>
		<path id="XMLID_220_" class="st1" d="M35.6,57.3c-0.4-0.2-0.9,0-1,0.4l-0.3,0.6c-0.2,0.4,0,0.9,0.4,1c0.1,0,0.2,0.1,0.3,0.1
			c0.3,0,0.6-0.2,0.7-0.5l0.3-0.6C36.2,57.9,36,57.5,35.6,57.3L35.6,57.3z"/>
		<path id="XMLID_219_" class="st1" d="M34.5,60c-0.4-0.2-0.9,0-1,0.4l-1.8,4.3c-0.2,0.4,0,0.9,0.4,1c0.1,0,0.2,0.1,0.3,0.1
			c0.3,0,0.6-0.2,0.7-0.5l1.8-4.3C35.1,60.6,34.9,60.2,34.5,60L34.5,60z"/>
		<path id="XMLID_218_" class="st1" d="M65.4,50.8l-2.4-1c-0.4-0.2-0.9,0-1,0.4c-0.2,0.4,0,0.9,0.4,1l2.4,1c0.1,0,0.2,0.1,0.3,0.1
			c0.3,0,0.6-0.2,0.7-0.5C66,51.4,65.8,50.9,65.4,50.8L65.4,50.8z"/>
		<path id="XMLID_217_" class="st1" d="M64.4,33.4c0.1,0,0.2,0,0.3-0.1l0.7-0.3c0.4-0.2,0.6-0.6,0.4-1c-0.2-0.4-0.6-0.6-1-0.4
			l-0.7,0.3c-0.4,0.2-0.6,0.6-0.4,1C63.8,33.3,64.1,33.4,64.4,33.4L64.4,33.4z"/>
		<path id="XMLID_235_" class="st1" d="M28.5,41.9c0-7.8,6.4-14.2,14.2-14.2s14.2,6.4,14.2,14.2s-6.4,14.2-14.2,14.2
			C34.8,56.1,28.5,49.7,28.5,41.9L28.5,41.9z M66.9,41.1h-8.6c-0.1-1.6-0.4-3.2-1-4.6l4.5-1.9c0.4-0.2,0.6-0.6,0.4-1
			c-0.2-0.4-0.6-0.6-1-0.4l-4.5,1.9c-0.7-1.5-1.7-2.8-2.8-4l6.2-6.2c0.3-0.3,0.3-0.8,0-1.1c-0.3-0.3-0.8-0.3-1.1,0l-6.2,6.2
			c-1.2-1-2.5-1.9-4-2.5l3.4-8.3c0.2-0.4,0-0.9-0.4-1c-0.4-0.2-0.9,0-1,0.4l-3.4,8.3c-1.5-0.5-3-0.7-4.6-0.7V17
			c0-0.4-0.4-0.8-0.8-0.8c-0.4,0-0.8,0.4-0.8,0.8v9.3c-3.7,0.3-6.9,1.9-9.5,4.3l-6.8-6.8c-0.3-0.3-0.8-0.3-1.1,0
			c-0.3,0.3-0.3,0.8,0,1.1l6.9,6.9c-2.2,2.6-3.6,5.8-3.7,9.4h-9.8c-0.4,0-0.8,0.4-0.8,0.8c0,0.4,0.4,0.8,0.8,0.8h9.8
			c0.2,3.6,1.6,6.9,3.8,9.4L23.9,59c-0.3,0.3-0.3,0.8,0,1.1c0.3,0.3,0.8,0.3,1.1,0l6.8-6.8c2.5,2.4,5.8,4,9.5,4.3v9.2
			c0,0.4,0.4,0.8,0.8,0.8c0.4,0,0.8-0.4,0.8-0.8v-9.2c1.6,0,3.1-0.3,4.5-0.7l3.5,8.4c0.1,0.3,0.4,0.5,0.7,0.5c0.1,0,0.2,0,0.3-0.1
			c0.4-0.2,0.6-0.6,0.4-1l-3.4-8.3c1.5-0.6,2.9-1.5,4.1-2.5l6.2,6.2c0.3,0.3,0.8,0.3,1.1,0c0.3-0.3,0.3-0.8,0-1.1L54,52.8
			c1.1-1.1,2-2.4,2.7-3.8l2.6,1.1c0.1,0,0.2,0.1,0.3,0.1c0.3,0,0.6-0.2,0.7-0.5c0.2-0.4,0-0.9-0.4-1l-2.6-1c0.6-1.5,0.9-3.2,1-4.9
			h8.6c0.4,0,0.8-0.4,0.8-0.8C67.7,41.4,67.4,41.1,66.9,41.1L66.9,41.1z"/>
		<path id="XMLID_214_" class="st1" d="M53.2,46.4c-0.1,0-0.2,0-0.2,0c-0.4-0.1-0.6-0.6-0.5-1c0.4-1.1,0.5-2.2,0.5-3.4
			c0-0.4,0.4-0.8,0.8-0.8c0.4,0,0.8,0.4,0.8,0.8c0,1.3-0.2,2.6-0.6,3.9C53.9,46.1,53.5,46.4,53.2,46.4L53.2,46.4z"/>
		<path id="XMLID_211_" class="st1" d="M44.6,54.2c-0.4,0-0.7-0.2-0.8-0.6c-0.1-0.4,0.2-0.8,0.6-0.9c2.5-0.6,4.7-2,6.3-4.1
			c0.3-0.3,0.8-0.4,1.1-0.1c0.3,0.3,0.4,0.8,0.1,1.1c-1.8,2.3-4.4,4-7.2,4.6C44.7,54.2,44.7,54.2,44.6,54.2L44.6,54.2z"/>
	</g>
</g>
</svg>
