<svg xmlns="http://www.w3.org/2000/svg" viewBox="0 0 44.1 44.1"><style type="text/css">  
	.st0{fill:#7D7D7D;}
	.st1{fill:#FFFFFF;}
</style><circle class="st0" cx="22" cy="22" r="22"/><path class="st1" d="M27.2 10.1H16.8c-3.5 0-6.4 2.9-6.4 6.4v10.4c0 3.5 2.9 6.4 6.4 6.4h10.4c3.5 0 6.4-2.9 6.4-6.4V16.5C33.6 13 30.7 10.1 27.2 10.1L27.2 10.1zM31.6 26.9c0 2.4-1.9 4.3-4.3 4.3H16.8c-2.4 0-4.3-1.9-4.3-4.3V16.5c0-2.4 1.9-4.3 4.3-4.3h10.4c2.4 0 4.3 1.9 4.3 4.3V26.9zM31.6 26.9"/><path class="st1" d="M22 15.8c-3.3 0-6 2.7-6 6 0 3.3 2.7 6 6 6 3.3 0 6-2.7 6-6C28 18.4 25.3 15.8 22 15.8L22 15.8zM22 25.6c-2.2 0-3.9-1.8-3.9-3.9 0-2.2 1.8-3.9 3.9-3.9s3.9 1.8 3.9 3.9C25.9 23.9 24.2 25.6 22 25.6L22 25.6zM22 25.6"/><path class="st1" d="M28.2 14c-0.4 0-0.8 0.2-1.1 0.4 -0.3 0.3-0.4 0.7-0.4 1.1 0 0.4 0.2 0.8 0.4 1.1 0.3 0.3 0.7 0.4 1.1 0.4 0.4 0 0.8-0.2 1.1-0.4 0.3-0.3 0.4-0.7 0.4-1.1 0-0.4-0.2-0.8-0.4-1.1C29 14.2 28.6 14 28.2 14L28.2 14zM28.2 14"/></svg>