<?xml version="1.0" encoding="utf-8"?>
<!-- Generator: Adobe Illustrator 19.0.0, SVG Export Plug-In . SVG Version: 6.00 Build 0)  -->
<svg version="1.1" id="Layer_1" xmlns="http://www.w3.org/2000/svg" xmlns:xlink="http://www.w3.org/1999/xlink" x="0px" y="0px"
	 viewBox="0 0 51.6 51.6" style="enable-background:new 0 0 51.6 51.6;" xml:space="preserve">
<style type="text/css">
	.st0{fill:#7D7D7D;}
	.st1{fill:#FFFFFF;}
</style>
<circle id="XMLID_17_" class="st0" cx="25.8" cy="25.8" r="25.8"/>
<g id="XMLID_121_">
	<path id="XMLID_165_" class="st1" d="M31.9,11.9H19.7c-4.1,0-7.5,3.4-7.5,7.5v12.1c0,4.1,3.4,7.5,7.5,7.5h12.1
		c4.1,0,7.5-3.4,7.5-7.5V19.4C39.4,15.2,36,11.9,31.9,11.9L31.9,11.9z M37,31.5c0,2.8-2.3,5.1-5.1,5.1H19.7c-2.8,0-5.1-2.3-5.1-5.1
		V19.4c0-2.8,2.3-5.1,5.1-5.1h12.1c2.8,0,5.1,2.3,5.1,5.1V31.5z M37,31.5"/>
	<path id="XMLID_161_" class="st1" d="M25.8,18.5c-3.9,0-7,3.1-7,7c0,3.9,3.1,7,7,7c3.9,0,7-3.1,7-7C32.8,21.6,29.7,18.5,25.8,18.5
		L25.8,18.5z M25.8,30c-2.5,0-4.6-2.1-4.6-4.6c0-2.5,2.1-4.6,4.6-4.6s4.6,2.1,4.6,4.6C30.4,28,28.3,30,25.8,30L25.8,30z M25.8,30"/>
	<path id="XMLID_158_" class="st1" d="M33.1,16.4c-0.5,0-0.9,0.2-1.2,0.5c-0.3,0.3-0.5,0.8-0.5,1.2c0,0.5,0.2,0.9,0.5,1.2
		c0.3,0.3,0.8,0.5,1.2,0.5c0.5,0,0.9-0.2,1.2-0.5c0.3-0.3,0.5-0.8,0.5-1.2c0-0.5-0.2-0.9-0.5-1.2C34,16.6,33.6,16.4,33.1,16.4
		L33.1,16.4z M33.1,16.4"/>
</g>
</svg>
