<?xml version="1.0" encoding="utf-8"?>
<!-- Generator: Adobe Illustrator 19.0.0, SVG Export Plug-In . SVG Version: 6.00 Build 0)  -->
<svg version="1.1" id="Layer_1" xmlns="http://www.w3.org/2000/svg" xmlns:xlink="http://www.w3.org/1999/xlink" x="0px" y="0px"
	 viewBox="0 0 406.1 104.3" style="enable-background:new 0 0 406.1 104.3;" xml:space="preserve">
<style type="text/css">
	.st0{fill:#FE340B;}
	.st1{fill:#EFEEEA;}
	.st2{fill-rule:evenodd;clip-rule:evenodd;fill:#151011;}
	.st3{fill:#151011;}
</style>
<g id="XMLID_544_">
	<g id="XMLID_452_">
		<g id="XMLID_1195_">
			<path id="XMLID_1196_" d="M160.8,35.7l-12.2,12.8l12.7,13.9h1.7c0.9,0,1.6,0.3,2.2,0.8s0.8,1.2,0.8,2.1c0,0.9-0.3,1.6-0.8,2.1
				s-1.3,0.8-2.2,0.8h-10.6c-0.9,0-1.6-0.3-2.2-0.8s-0.8-1.2-0.8-2.1c0-0.9,0.3-1.5,0.8-2.1s1.3-0.8,2.2-0.8h0.6l-10.6-11.7v11.7
				h1.2c0.9,0,1.6,0.3,2.2,0.8s0.8,1.2,0.8,2.1c0,0.9-0.3,1.6-0.8,2.1s-1.3,0.8-2.2,0.8H134c-0.9,0-1.6-0.3-2.2-0.8
				c-0.6-0.5-0.8-1.2-0.8-2.1c0-0.9,0.3-1.5,0.8-2.1c0.6-0.5,1.3-0.8,2.2-0.8h1.7V35.7H134c-0.9,0-1.6-0.3-2.2-0.8
				c-0.6-0.5-0.8-1.2-0.8-2.1c0-0.9,0.3-1.5,0.8-2.1c0.6-0.5,1.3-0.8,2.2-0.8h9c0.9,0,1.6,0.3,2.2,0.8c0.6,0.5,0.8,1.2,0.8,2.1
				c0,0.9-0.3,1.6-0.8,2.1c-0.6,0.5-1.3,0.8-2.2,0.8h-0.6v11.7l10.7-11.7h-0.4c-0.9,0-1.6-0.3-2.2-0.8c-0.6-0.5-0.8-1.2-0.8-2.1
				c0-0.9,0.3-1.5,0.8-2.1c0.6-0.5,1.3-0.8,2.2-0.8h9.2c0.9,0,1.6,0.3,2.2,0.8s0.8,1.2,0.8,2.1c0,0.9-0.3,1.6-0.8,2.1
				s-1.3,0.8-2.2,0.8H160.8z"/>
			<path id="XMLID_1198_" d="M173.4,34.9c3.2-3.7,7.7-5.6,13.5-5.6c5.8,0,10.3,1.9,13.5,5.6c3.2,3.7,4.8,8.4,4.8,14.2
				c0,5.8-1.6,10.5-4.8,14.2c-3.2,3.7-7.7,5.5-13.5,5.5c-5.8,0-10.3-1.8-13.5-5.5c-3.2-3.7-4.8-8.4-4.8-14.2
				C168.7,43.3,170.3,38.6,173.4,34.9z M178.6,59c1.9,2.6,4.7,3.9,8.3,3.9c3.6,0,6.4-1.3,8.4-3.9c1.9-2.6,2.9-5.9,2.9-9.9
				c0-4-1-7.3-2.9-9.9c-1.9-2.6-4.7-3.9-8.4-3.9c-3.6,0-6.4,1.3-8.3,3.9c-1.9,2.6-2.9,5.9-2.9,9.9C175.7,53.1,176.7,56.4,178.6,59z"
				/>
			<path id="XMLID_1201_" d="M208.5,33.1c0-0.9,0.2-1.6,0.7-2.3c0.5-0.6,1.2-0.9,2.2-1h26.9c1,0,1.7,0.4,2.2,1
				c0.5,0.6,0.8,1.4,0.8,2.3v6.5c0,0.9-0.3,1.7-0.8,2.3c-0.5,0.6-1.3,0.9-2.3,0.9c-1,0-1.8-0.3-2.3-0.9s-0.8-1.4-0.8-2.3v-3.8h-6.9
				v26.6h1.7c0.9,0,1.6,0.3,2.2,0.8s0.8,1.2,0.8,2.1c0,0.9-0.3,1.6-0.8,2.1s-1.3,0.8-2.2,0.8h-10.1c-0.9,0-1.6-0.3-2.2-0.8
				c-0.6-0.5-0.8-1.2-0.8-2.1c0-0.9,0.3-1.5,0.8-2.1c0.6-0.5,1.3-0.8,2.2-0.8h1.7V35.9h-6.9v3.8c0,0.9-0.3,1.7-0.8,2.3
				c-0.5,0.6-1.3,0.9-2.3,0.9c-1,0-1.8-0.3-2.3-0.9c-0.5-0.6-0.8-1.4-0.8-2.3V33.1z"/>
			<path id="XMLID_1203_" d="M244.8,56.2c-0.9,0-1.6-0.2-2.2-0.7c-0.6-0.5-0.8-1.2-0.8-2.1c0-0.9,0.3-1.5,0.8-2
				c0.6-0.5,1.3-0.8,2.2-0.8h13.6c0.9,0,1.6,0.3,2.2,0.8s0.8,1.2,0.8,2c0,0.9-0.3,1.6-0.8,2.1c-0.6,0.5-1.3,0.7-2.2,0.7H244.8z"/>
			<path id="XMLID_1205_" d="M295.1,35.7l-9.2,21.5c-1.7,4.1-3.4,7-5,8.9c-1.6,1.8-3.6,2.8-6,2.8c-2.2,0-4-0.4-5.3-1.1
				c-2-1.1-2.6-2.5-1.9-4.3c0.6-1.6,1.8-2,3.6-1.4c0.2,0,0.5,0.1,1,0.3c0.5,0.2,0.9,0.3,1.2,0.4c0.4,0.1,0.7,0.1,1.1,0.1
				c0.9,0,1.7-0.4,2.4-1.1c0.7-0.8,1.3-1.9,1.9-3.5l-13.1-22.5h-0.8c-0.9,0-1.6-0.3-2.2-0.8s-0.8-1.2-0.8-2.1c0-0.9,0.3-1.5,0.8-2.1
				s1.3-0.8,2.2-0.8h9.1c0.9,0,1.6,0.3,2.2,0.8s0.8,1.2,0.8,2.1c0,0.9-0.3,1.6-0.8,2.1s-1.3,0.8-2.2,0.8h-0.8l8.8,16.2l6.7-16.2
				h-0.9c-0.9,0-1.6-0.3-2.2-0.8s-0.8-1.2-0.8-2.1c0-0.9,0.3-1.5,0.8-2.1s1.3-0.8,2.2-0.8h8.3c0.9,0,1.6,0.3,2.2,0.8
				c0.6,0.5,0.8,1.2,0.8,2.1c0,0.9-0.3,1.6-0.8,2.1c-0.6,0.5-1.3,0.8-2.2,0.8H295.1z"/>
			<path id="XMLID_1207_" d="M311,35.7v5.9c0,2.9,0.5,4.9,1.5,6.1c1,1.2,2.6,1.8,4.8,1.8c2.6,0,5.2-0.9,7.9-2.8V35.7h-1.7
				c-0.9,0-1.6-0.3-2.2-0.8s-0.8-1.2-0.8-2.1c0-0.9,0.3-1.5,0.8-2.1s1.3-0.8,2.2-0.8h10.1c0.9,0,1.6,0.3,2.2,0.8s0.8,1.2,0.8,2.1
				c0,0.9-0.3,1.6-0.8,2.1s-1.3,0.8-2.2,0.8h-1.7v26.8h1.7c0.9,0,1.6,0.3,2.2,0.8s0.8,1.2,0.8,2.1c0,0.9-0.3,1.6-0.8,2.1
				s-1.3,0.8-2.2,0.8h-10.7c-0.9,0-1.6-0.3-2.2-0.8s-0.8-1.2-0.8-2.1c0-0.9,0.3-1.5,0.8-2.1s1.3-0.8,2.2-0.8h2.3v-9.9
				c-2.6,1.8-5.6,2.7-8.9,2.7c-4,0-7-1-9-2.9c-2-1.9-3-5.4-3-10.4v-6.3h-1.7c-0.9,0-1.6-0.3-2.2-0.8s-0.8-1.2-0.8-2.1
				c0-0.9,0.3-1.5,0.8-2.1s1.3-0.8,2.2-0.8h10.1c0.9,0,1.6,0.3,2.2,0.8c0.6,0.5,0.8,1.2,0.8,2.1c0,0.9-0.3,1.6-0.8,2.1
				c-0.6,0.5-1.3,0.8-2.2,0.8H311z"/>
			<path id="XMLID_1209_" d="M363.9,35.9h-12.6v9.7h12.4c1,0,1.8,0.3,2.4,0.8s0.9,1.2,0.9,2.2c0,0.9-0.3,1.6-0.9,2.2
				s-1.4,0.8-2.4,0.8h-12.4v10.8h13.1V60c0-0.9,0.3-1.7,0.8-2.3s1.3-0.9,2.2-0.9c1,0,1.8,0.3,2.3,0.9s0.8,1.4,0.8,2.3v5
				c0,0.9-0.3,1.7-0.8,2.3s-1.3,0.9-2.3,0.9h-24.5c-0.9,0-1.6-0.3-2.2-0.8c-0.6-0.5-0.8-1.2-0.8-2.1c0-0.9,0.3-1.5,0.8-2.1
				c0.6-0.5,1.3-0.8,2.2-0.8h1.7V35.7h-1.7c-0.9,0-1.6-0.3-2.2-0.8c-0.6-0.5-0.8-1.2-0.8-2.1c0-0.9,0.3-1.5,0.8-2.1
				c0.6-0.5,1.3-0.8,2.2-0.8h24c1,0,1.8,0.3,2.3,0.9c0.5,0.6,0.8,1.4,0.8,2.3v4.6c0,0.9-0.3,1.7-0.8,2.3c-0.5,0.6-1.3,0.9-2.3,0.9
				c-1,0-1.8-0.3-2.3-0.9s-0.8-1.4-0.8-2.3V35.9z"/>
			<path id="XMLID_1211_" d="M373.3,33.1c0-0.9,0.2-1.6,0.7-2.3c0.5-0.6,1.2-0.9,2.2-1h26.9c1,0,1.7,0.4,2.2,1
				c0.5,0.6,0.8,1.4,0.8,2.3v6.5c0,0.9-0.3,1.7-0.8,2.3c-0.5,0.6-1.3,0.9-2.3,0.9c-1,0-1.8-0.3-2.3-0.9s-0.8-1.4-0.8-2.3v-3.8H393
				v26.6h1.7c0.9,0,1.6,0.3,2.2,0.8s0.8,1.2,0.8,2.1c0,0.9-0.3,1.6-0.8,2.1s-1.3,0.8-2.2,0.8h-10.1c-0.9,0-1.6-0.3-2.2-0.8
				c-0.6-0.5-0.8-1.2-0.8-2.1c0-0.9,0.3-1.5,0.8-2.1c0.6-0.5,1.3-0.8,2.2-0.8h1.7V35.9h-6.9v3.8c0,0.9-0.3,1.7-0.8,2.3
				c-0.5,0.6-1.3,0.9-2.3,0.9c-1,0-1.8-0.3-2.3-0.9c-0.5-0.6-0.8-1.4-0.8-2.3V33.1z"/>
		</g>
		<g id="XMLID_1150_">
			<path id="XMLID_1151_" d="M143.9,77.6c-0.4,0.5-0.8,0.9-1.4,1.1c-0.6,0.2-1.3,0.3-2.1,0.5c-0.8,0.1-1.6,0.3-2.3,0.6
				c-1.9,0.8-2.9,2.9-3.1,6.2h0c0.7-1.8,2.7-2.9,4.7-2.9c3.2,0,5.2,2.2,5.2,5.5c0,1.5-0.5,2.8-1.6,3.9c-1,1.1-2.4,1.6-3.9,1.6
				c-1.7,0-3.1-0.6-4.1-1.8c-1-1.2-1.5-2.8-1.5-4.9c0-4.8,1.3-7.7,4-8.8c0.7-0.3,1.4-0.5,2.2-0.6c1.6-0.3,2.5-0.4,3.2-1.3
				L143.9,77.6z M139.4,92.8c1.2,0,2.2-0.4,3-1.3c0.8-0.8,1.2-1.9,1.2-3.1c0-2.6-1.5-4.3-4.1-4.3c-1.2,0-2.1,0.3-2.9,1
				c-0.8,0.7-1.3,1.4-1.4,2.3C135.2,90.8,136.9,92.8,139.4,92.8z"/>
			<path id="XMLID_1154_" d="M159.3,82.9L155,93.8c-0.8,1.9-1.4,3.2-2.1,3.8c-0.6,0.7-1.3,1-2,1c-0.6,0-1.2-0.2-1.9-0.6l0.4-1
				c0.5,0.2,0.9,0.4,1.3,0.4c1.1,0,1.9-0.9,2.8-3.1l0.2-0.6l-5.4-10.9h1.5l3.7,7.7l0.8,1.7c0.1-0.3,0.3-0.8,0.6-1.7l2.9-7.6H159.3z"
				/>
			<path id="XMLID_1156_" d="M172.7,82.9l-4.1,5.3l4.3,5.6h-1.5l-3.7-4.8l-3.7,4.8h-1.5l4.3-5.5l-4.1-5.3h1.5l3.5,4.5l3.5-4.5H172.7
				z"/>
			<path id="XMLID_1158_" d="M178,93.8V82.9h6.5v1.2h-5.3v9.7H178z"/>
			<path id="XMLID_1160_" d="M189,83.7c1.1-0.7,2.2-1,3.5-1c2.9,0,4,1.4,4,4.3v6.7h-1.3v-1.7c-0.9,1.2-2.1,1.8-3.7,1.8
				c-2,0-3.4-1.3-3.4-3.2c0-1.1,0.4-1.9,1.2-2.5c0.8-0.6,1.8-0.9,3-0.9s2.2,0.3,2.9,0.8c0-1.2,0-1.8-0.2-2.6c-0.3-1.2-1-1.6-2.6-1.7
				c-1,0-2,0.3-3,0.8L189,83.7z M195.2,91v-1.8c-0.8-0.6-1.7-0.9-2.8-0.9c-1.6,0-2.9,0.8-2.9,2.3c0,1.3,1,2.1,2.4,2.1
				C193.2,92.7,194.3,92.1,195.2,91z"/>
			<path id="XMLID_1163_" d="M210.1,93.8v-9.6h-4.6l-0.1,2.4c-0.2,3.1-0.7,5.1-1.5,6.1c-0.7,1-1.4,1.3-2.4,1.3l-0.1-1.2
				c0.4,0,0.7-0.1,1.2-0.6c0.7-0.7,1.4-2.4,1.6-5.8l0.2-3.4h7v10.9H210.1z"/>
			<path id="XMLID_1165_" d="M216,84.2v-1.3h9.9v1.3h-4.3v9.6h-1.3v-9.6H216z"/>
			<path id="XMLID_1167_" d="M239.1,92.4c-1,1-2.3,1.5-4,1.5c-1.7,0-3.1-0.5-4.2-1.5c-1.1-1-1.6-2.4-1.6-4.1c0-1.6,0.5-3,1.4-4.1
				c1-1.1,2.3-1.6,4.1-1.6c1.4,0,2.6,0.5,3.5,1.4c0.9,0.9,1.4,2.1,1.4,3.5c0,0.4,0,0.7-0.1,1h-9c0.1,2.6,1.8,4.2,4.4,4.2
				c1.5,0,2.7-0.4,3.5-1.3L239.1,92.4z M230.7,87.6h7.8c0-2.3-1.5-3.7-3.8-3.7C232.4,83.9,230.9,85.4,230.7,87.6z"/>
			<path id="XMLID_1170_" d="M245.2,98.6V82.9h1.3v1.4c0.8-1,2.4-1.7,4-1.7s2.8,0.5,3.7,1.5c0.9,1,1.4,2.3,1.4,4
				c0,1.7-0.5,3.1-1.5,4.2c-1,1.1-2.4,1.6-4,1.6c-1.5,0-2.6-0.3-3.5-0.9v5.5H245.2z M246.4,85.6v6.2c1,0.7,2.1,1,3.4,1
				c1.3,0,2.3-0.4,3.1-1.3c0.8-0.8,1.2-2,1.2-3.3c0-2.6-1.5-4.4-4.1-4.4C248.6,83.9,247.2,84.6,246.4,85.6z"/>
			<path id="XMLID_1173_" d="M270,92.2c-0.9,1.1-2.5,1.8-4.1,1.8c-1.7,0-3.1-0.5-4.1-1.5c-1.1-1-1.6-2.4-1.6-4.1
				c0-1.6,0.5-2.9,1.5-4s2.3-1.6,3.9-1.6c1.9,0,3.3,0.5,4.2,1.4l-0.6,1c-0.9-0.8-2-1.2-3.4-1.2c-1.2,0-2.2,0.4-3,1.3
				s-1.3,1.9-1.3,3.2c0,1.4,0.4,2.4,1.3,3.3c0.8,0.8,1.9,1.2,3.2,1.2c1.4,0,2.5-0.5,3.4-1.5L270,92.2z"/>
			<path id="XMLID_1175_" d="M275.2,93.8V82.9h1.3v10.9H275.2z M284,82.9l-5.4,5.2l5.8,5.7h-1.7l-5.6-5.6l5.3-5.3H284z"/>
			<path id="XMLID_1178_" d="M290.5,93.8h-1.3V82.9h1.3v9l7.2-9h1.3v10.9h-1.3v-9L290.5,93.8z"/>
			<path id="XMLID_1180_" d="M314.2,92.4c-1,1-2.3,1.5-4,1.5c-1.7,0-3.1-0.5-4.2-1.5c-1.1-1-1.6-2.4-1.6-4.1c0-1.6,0.5-3,1.4-4.1
				c1-1.1,2.3-1.6,4.1-1.6c1.4,0,2.6,0.5,3.5,1.4c0.9,0.9,1.4,2.1,1.4,3.5c0,0.4,0,0.7-0.1,1h-9c0.1,2.6,1.8,4.2,4.4,4.2
				c1.5,0,2.7-0.4,3.5-1.3L314.2,92.4z M305.8,87.6h7.8c0-2.3-1.5-3.7-3.8-3.7C307.5,83.9,306,85.4,305.8,87.6z"/>
			<path id="XMLID_1183_" d="M337.7,82.9l-4.4,10.9c-0.8,1.9-1.4,3.2-2.1,3.8c-0.6,0.7-1.3,1-2,1c-0.6,0-1.2-0.2-1.9-0.6l0.4-1
				c0.5,0.2,0.9,0.4,1.3,0.4c1.1,0,1.9-0.9,2.8-3.1l0.2-0.6l-5.4-10.9h1.5l3.7,7.7l0.8,1.7c0.1-0.3,0.3-0.8,0.6-1.7l2.9-7.6H337.7z"
				/>
			<path id="XMLID_1185_" d="M351,92.2c-0.9,1.1-2.5,1.8-4.1,1.8c-1.7,0-3.1-0.5-4.1-1.5c-1.1-1-1.6-2.4-1.6-4.1
				c0-1.6,0.5-2.9,1.5-4s2.3-1.6,3.9-1.6c1.9,0,3.3,0.5,4.2,1.4l-0.6,1c-0.9-0.8-2-1.2-3.4-1.2c-1.2,0-2.2,0.4-3,1.3
				s-1.3,1.9-1.3,3.2c0,1.4,0.4,2.4,1.3,3.3c0.8,0.8,1.9,1.2,3.2,1.2c1.4,0,2.5-0.5,3.4-1.5L351,92.2z"/>
			<path id="XMLID_1187_" d="M363.5,93.8v-9.6h-4.6l-0.1,2.4c-0.2,3.1-0.7,5.1-1.5,6.1c-0.7,1-1.4,1.3-2.4,1.3l-0.1-1.2
				c0.4,0,0.7-0.1,1.2-0.6c0.7-0.7,1.4-2.4,1.6-5.8l0.2-3.4h7v10.9H363.5z"/>
			<path id="XMLID_1189_" d="M380.3,82.9l-4.4,10.9c-0.8,1.9-1.4,3.2-2.1,3.8c-0.6,0.7-1.3,1-2,1c-0.6,0-1.2-0.2-1.9-0.6l0.4-1
				c0.5,0.2,0.9,0.4,1.3,0.4c1.1,0,1.9-0.9,2.8-3.1l0.2-0.6l-5.4-10.9h1.5l3.7,7.7l0.8,1.7c0.1-0.3,0.3-0.8,0.6-1.7l2.9-7.6H380.3z"
				/>
			<path id="XMLID_1191_" d="M385,93.8V82.9h6.5v1.2h-5.3v9.7H385z"/>
			<path id="XMLID_1193_" d="M397.2,93.8h-1.3V82.9h1.3v9l7.2-9h1.3v10.9h-1.3v-9L397.2,93.8z"/>
		</g>
	</g>
	<g id="XMLID_401_">
		<path id="XMLID_448_" class="st0" d="M99.7,89c0.4-1.7-1.6-4.1-2.6-5.1c-1.4,1.1-2.9,2.1-4.4,3.2c-2.4,1.8-4.7,3.5-7.3,5
			c-8.6,4.8-18.7,6.5-28.5,6c-5.4-0.3-10.7-1.2-15.9-2.5c-1.1-0.3-2.2-0.6-3.3-0.9c-5.1-0.9-10.1-2.8-14.5-5.3
			c-2.4-1.4-5.1-3.3-7.3-5.5c0,1,0,2,0.1,3c0.1,1.6,0.6,3.3,1.6,4.6c1.1,1.3,2.6,2.1,4.1,2.9c1.6,0.8,3.2,1.6,4.8,2.4
			c5.9,2.7,11.9,5,18.2,6.4c6.6,1.5,13.3,1.6,20,0.9c3.4-0.4,6.8-0.7,10.1-1.4c3.3-0.7,6.2-2.2,9.1-3.7c2.8-1.4,5.6-2.8,8.4-4.3
			c2.6-1.4,5-3.1,7.3-4.9C99.7,89.3,99.7,89.1,99.7,89z M32,96.1c-0.3,0-0.5,0.1-0.8,0.1c-1.6,0-3.3-0.8-4.7-1.3
			c-1.8-0.7-3.3-1.8-4.8-3c-0.3-0.2,0-0.8,0.3-0.8c0,0,0.1,0,0.1,0c1.7,0.7,3.4,1.2,5.1,1.8c1.6,0.6,3.6,0.7,5,1.7
			C32.7,95,32.7,96,32,96.1z M98.4,87.3c-0.3,1.5-1.7,2.4-2.8,3.3c-1.1,1-2.3,1.9-3.6,2.6c-2.7,1.5-5.6,2.7-8.3,4.1
			c-0.1,0.1-0.3,0.1-0.4,0.1c-0.7,0-1.1-1-0.4-1.5c2.5-1.6,5-3.3,7.5-5.1C91.7,90,92.8,89,94,88c1-0.9,2-1.9,3.4-2c0,0,0.1,0,0.1,0
			C98.2,86,98.6,86.7,98.4,87.3z"/>
		<g id="XMLID_423_">
			<g id="XMLID_436_">
				<path id="XMLID_447_" class="st0" d="M5.1,2.1C4.8,1.8,4.4,1.5,4,1.1C4.9,2,5.7,3,6.4,4c1,1.3,2,2.6,2.9,3.9
					c0.3-0.2,0.6-0.4,0.9-0.5c0,0,0.1-0.1,0.1-0.1C9.6,6.4,8.7,5.5,7.9,4.6C7,3.8,6.1,2.9,5.1,2.1z"/>
				<path id="XMLID_446_" class="st0" d="M12.1,9.5c-0.2,0.2-0.5,0.5-0.8,0.6c-0.1,0-0.2,0.1-0.3,0.1c0.2,0.2,0.3,0.5,0.5,0.7
					c0.1-0.2,0.3-0.3,0.4-0.4c0.2-0.2,0.5-0.4,0.7-0.5C12.5,9.8,12.4,9.6,12.1,9.5L12.1,9.5z"/>
				<path id="XMLID_443_" class="st0" d="M4,0c1,0.6,1.9,1.4,2.3,1.8c2.3,1.9,4.4,4.2,6.4,6.5c3.7,4.5,7.2,9.4,10.1,14.5
					c1-1.1,2.2-2.1,3.4-3c1.2-0.9,2.4-1.7,3.7-2.4c0.2-0.1,0.5-0.3,0.7-0.4C24.2,12.1,9.3,1.7,4,0z M25.2,17
					c-1.3-0.7-2.4-2.1-3.5-3.1c-1.3-1.1-2.5-2.2-3.8-3.2c-0.2-0.2,0.1-0.5,0.3-0.4c1.4,0.8,2.8,1.7,4.1,2.7c1.2,0.9,2.9,2,3.5,3.4
					C26,16.8,25.6,17.1,25.2,17z"/>
				<path id="XMLID_442_" class="st0" d="M17.9,20.5c0.3-0.5,0.7-0.9,1.2-1.3c-0.2-0.3-0.4-0.7-0.6-1c-0.3,0.2-0.6,0.4-0.9,0.7
					c-0.1,0.1-0.3,0.3-0.4,0.4C17.4,19.7,17.6,20.1,17.9,20.5z"/>
				<path id="XMLID_441_" class="st0" d="M12.7,11.4c-0.2,0.1-0.3,0.3-0.5,0.5c1.5,2.1,3,4.3,4.4,6.5c0.1-0.1,0.1-0.2,0.2-0.2
					c0.3-0.3,0.6-0.7,1-0.9c-1.4-2.1-2.8-4.3-4.4-6.3C13.2,11.1,12.9,11.2,12.7,11.4z"/>
				<path id="XMLID_440_" class="st0" d="M10.8,8.4c-0.2,0.1-0.5,0.3-0.7,0.4c0.1,0.2,0.3,0.3,0.4,0.5l0.1-0.1
					c0.1,0,0.2-0.1,0.3-0.1c0.2-0.1,0.4-0.3,0.6-0.4c0.1-0.1,0.1-0.1,0.2-0.1c-0.1-0.2-0.3-0.3-0.4-0.5C11,8.3,10.9,8.4,10.8,8.4z"
					/>
				<path id="XMLID_437_" class="st0" d="M6.3,5.8c-1.5-2-3-3.9-5-5.4C1.2,0.5,1.1,0.5,1,0.6C-0.9,3.2-0.1,11,2.8,18
					c2.7,6.5,4.1,13,5.5,19.3c0.3,1.5,0.7,3,1,4.6c0.6-0.9,1.2-1.7,1.7-2.6c1-1.5,2-3,3-4.4c1.9-2.8,3.7-5.7,5.7-8.4
					c-2.4-4.8-5.3-9.4-8.4-13.8C9.6,10.3,8,8.1,6.3,5.8z M9.4,34.9c-0.1,0-0.2,0-0.2-0.2c-0.2-1.4-0.5-2.8-0.8-4.2
					c-0.6-2.3-1.3-4.7-2-6.9c-0.6-1.9-1.2-3.8-1.8-5.7c-0.1-0.4-0.3-0.8-0.4-1.3c-0.1-0.4-0.3-0.9-0.4-1.3c-0.2-0.9-0.4-1.8-0.4-2.7
					c0-0.4,0.6-0.6,0.8-0.2C5,14.2,5.3,16.2,5.9,18c0.5,1.8,1.1,3.6,1.7,5.5c0.4,1.4,0.8,2.8,1.1,4.2c0.5,2.3,0.9,4.7,0.9,7.1
					C9.6,34.8,9.5,34.9,9.4,34.9z"/>
			</g>
			<g id="XMLID_424_">
				<path id="XMLID_435_" class="st0" d="M110.5,2.1c0.4-0.3,0.8-0.7,1.2-1C110.7,2,109.9,3,109.2,4c-1,1.3-2,2.6-2.9,3.9
					c-0.3-0.2-0.6-0.4-0.9-0.5c0,0-0.1-0.1-0.1-0.1c0.8-0.9,1.6-1.8,2.5-2.6C108.6,3.8,109.5,2.9,110.5,2.1z"/>
				<path id="XMLID_434_" class="st0" d="M103.5,9.5c0.2,0.2,0.5,0.5,0.8,0.6c0.1,0,0.2,0.1,0.3,0.1c-0.2,0.2-0.3,0.5-0.5,0.7
					c-0.1-0.2-0.3-0.3-0.4-0.4c-0.2-0.2-0.5-0.4-0.7-0.5C103.1,9.8,103.2,9.6,103.5,9.5L103.5,9.5z"/>
				<path id="XMLID_431_" class="st0" d="M85,16.9c0.3,0.1,0.5,0.3,0.7,0.4c1.3,0.7,2.6,1.5,3.7,2.4c1.2,0.9,2.3,1.9,3.4,3
					c2.9-5.1,6.4-10,10.1-14.5c1.9-2.3,4-4.5,6.4-6.5c0.5-0.4,1.4-1.2,2.3-1.8C106.3,1.7,91.4,12.1,85,16.9z M89.8,16.4
					c0.7-1.4,2.4-2.5,3.5-3.4c1.3-1,2.7-1.9,4.1-2.7c0.2-0.1,0.5,0.2,0.3,0.4c-1.3,1-2.6,2.1-3.8,3.2c-1.1,1-2.2,2.4-3.5,3.1
					C90,17.1,89.6,16.8,89.8,16.4z"/>
				<path id="XMLID_430_" class="st0" d="M97.7,20.5c-0.3-0.5-0.7-0.9-1.2-1.3c0.2-0.3,0.4-0.7,0.6-1c0.3,0.2,0.6,0.4,0.9,0.7
					c0.1,0.1,0.3,0.3,0.4,0.4C98.2,19.7,98,20.1,97.7,20.5z"/>
				<path id="XMLID_429_" class="st0" d="M102.9,11.4c0.2,0.1,0.3,0.3,0.5,0.5c-1.5,2.1-3,4.3-4.4,6.5c-0.1-0.1-0.1-0.2-0.2-0.2
					c-0.3-0.3-0.6-0.7-1-0.9c1.4-2.1,2.8-4.3,4.4-6.3C102.4,11.1,102.7,11.2,102.9,11.4z"/>
				<path id="XMLID_428_" class="st0" d="M104.8,8.4c0.2,0.1,0.5,0.3,0.7,0.4c-0.1,0.2-0.3,0.3-0.4,0.5l-0.1-0.1
					c-0.1,0-0.2-0.1-0.3-0.1c-0.2-0.1-0.4-0.3-0.6-0.4c-0.1-0.1-0.1-0.1-0.2-0.1c0.1-0.2,0.3-0.3,0.4-0.5
					C104.6,8.3,104.7,8.4,104.8,8.4z"/>
				<path id="XMLID_425_" class="st0" d="M104.3,12.7c-3.1,4.4-6,8.9-8.4,13.8c2,2.7,3.8,5.6,5.7,8.4c1,1.5,2,2.9,3,4.4
					c0.6,0.9,1.2,1.7,1.7,2.6c0.4-1.5,0.7-3.1,1-4.6c1.4-6.3,2.8-12.7,5.5-19.3c2.9-7,3.7-14.8,1.7-17.4c-0.1-0.1-0.1-0.2-0.2-0.3
					c-2,1.5-3.5,3.4-5,5.4C107.6,8.1,105.9,10.3,104.3,12.7z M106,34.7c0-2.4,0.3-4.8,0.9-7.1c0.3-1.4,0.7-2.8,1.1-4.2
					c0.6-1.8,1.2-3.6,1.7-5.5c0.5-1.8,0.9-3.8,1.6-5.6c0.2-0.4,0.8-0.2,0.8,0.2c0,0.9-0.1,1.8-0.4,2.7c-0.1,0.4-0.2,0.9-0.4,1.3
					c-0.1,0.4-0.3,0.9-0.4,1.3c-0.6,1.9-1.2,3.8-1.8,5.7c-0.7,2.3-1.4,4.6-2,6.9c-0.3,1.4-0.6,2.8-0.8,4.2c0,0.1-0.1,0.2-0.2,0.2
					C106.1,34.9,106,34.8,106,34.7z"/>
			</g>
		</g>
		<ellipse id="XMLID_422_" class="st1" cx="57.8" cy="56" rx="47.7" ry="40.5"/>
		<path id="XMLID_421_" class="st0" d="M86.4,30.1c-3.4-1.9-7.2-3.3-11.1-3.9c-3.5-0.5-7.9-1-11.3,0.5c-3.2,1.5-3.6,5-3.2,8.2
			c-0.1,1.4,0,2.7,0.2,4.2c0.5,3.6,1.9,7.1,4,10.1c4.3,5.8,11.1,9.6,18.3,10.1c3.6,0.3,7.5-0.4,10.4-2.6c2.9-2.2,4.4-5.7,4.5-9.3
			C98.6,39.8,92.6,33.6,86.4,30.1L86.4,30.1z"/>
		<path id="XMLID_420_" class="st0" d="M38.8,30.5c3.4,0.3,7.1-0.3,9.9-2.5c2.8-2.1,4.2-5.4,4.3-8.8c0-1.2-0.1-2.4-0.4-3.6
			c-10.1,0.9-19.3,4.6-26.5,10C29.8,28.4,34.2,30.1,38.8,30.5z"/>
		<path id="XMLID_419_" class="st0" d="M33.2,66.5c-3.2-1.8-6.9-3.1-10.5-3.7c-3.3-0.5-7.5-1-10.7,0.5c-0.3,0.2-0.7,0.3-0.9,0.5
			c3,13,13.3,23.8,27.1,29.1c0.7-0.3,1.4-0.7,2-1.2c2.8-2.1,4.2-5.4,4.3-8.8C44.7,75.7,39,69.8,33.2,66.5z"/>
		<g id="XMLID_412_">
			<path id="XMLID_418_" class="st2" d="M37.6,37.5c-2.4,0-4.6,1-6.1,2.5c-1.6,1.6-2.5,3.7-2.5,6.1c0,0.7,0.6,1.3,1.3,1.3
				c0.7,0,1.3-0.6,1.3-1.3c0-1.7,0.7-3.2,1.8-4.2c1.1-1.1,2.6-1.8,4.2-1.8c1.7,0,3.2,0.7,4.2,1.8c1.1,1.1,1.8,2.6,1.8,4.2
				c0,0.7,0.6,1.3,1.3,1.3c0.7,0,1.3-0.6,1.3-1.3c0-2.4-1-4.6-2.5-6.1C42.1,38.5,40,37.5,37.6,37.5z"/>
			<path id="XMLID_414_" class="st2" d="M97.5,38v-1.6c0-3.3-0.9-3.7-0.9-3.7c-2-0.6-4.1-0.9-4.1-0.9H66.2c-3.1,0-3.6,0.6-3.6,0.6
				c-0.5,0.8-2.2,1.1-2.2,1.1h-2.1h-0.8h-2.1c0,0-1.7-0.3-2.2-1.1c0,0-0.5-0.6-3.6-0.6H23.1c0,0-2.1,0.3-4.1,0.9
				c0,0-0.9,0.4-0.9,3.7V38c0,0-0.2,1.4,1,1.9c0,0,3.2,0.6,3.2,4.6v2.4c0,0,0.9,6.3,7.4,6.3h13.1c0,0,9.5-0.3,9.5-5.5v-3.1
				c0,0-0.4-6,5.4-6.2c5.8,0.3,5.4,6.2,5.4,6.2v3.1c0,5.2,9.5,5.5,9.5,5.5h13.1c6.5,0,7.4-6.3,7.4-6.3v-2.4c0-4,3.2-4.6,3.2-4.6
				C97.7,39.4,97.5,38,97.5,38z M51.3,38.1v6.2c0,7.6-8.7,7.8-8.7,7.8h-8.8c-10.3,0-9.9-7.2-9.9-7.2v-7c0-4.7,2.4-4.9,2.4-4.9h16.5
				C51.4,33.1,51.3,38.1,51.3,38.1z M81.9,52.2H73c0,0-8.7-0.2-8.7-7.8v-6.2c0,0-0.1-5,8.5-5h16.5c0,0,2.4,0.2,2.4,4.9v7
				C91.7,45,92.2,52.2,81.9,52.2z"/>
			<path id="XMLID_413_" class="st2" d="M78.5,37.5c-2.4,0-4.6,1-6.1,2.5c-1.6,1.6-2.5,3.7-2.5,6.1c0,0.7,0.6,1.3,1.3,1.3
				s1.3-0.6,1.3-1.3c0-1.7,0.7-3.2,1.8-4.2c1.1-1.1,2.6-1.8,4.2-1.8c1.7,0,3.2,0.7,4.2,1.8c1.1,1.1,1.8,2.6,1.8,4.2
				c0,0.7,0.6,1.3,1.3,1.3c0.7,0,1.3-0.6,1.3-1.3c0-2.4-1-4.6-2.5-6.1C83.1,38.5,80.9,37.5,78.5,37.5z"/>
		</g>
		<g id="XMLID_402_">
			<path id="XMLID_409_" class="st3" d="M59.2,61.3c0.6-0.8,1.5-1.4,2.6-1.8c0.8-0.3,0.7-0.3,0.3,0.2c-0.3,0.3-0.4,0.5-0.7,0.8
				c-0.6,0.6-1.2,1-1.8,1.6c-0.3-0.1-0.5-0.3-0.8-0.4C59,61.5,59.1,61.4,59.2,61.3L59.2,61.3z M53.9,71.7c2.2-0.5,3.7-1.8,4.7-3.2
				c0.6,1,1.7,2,2.9,2.5c2.2,0.8,5.7,0.1,6.7-1.5c0.2-0.3-0.1-0.6-0.6-0.5c-1.9,0.3-3.7,1.7-5.6,0.5c-1.2-0.8-1.6-1.8-2.3-2.8
				c0.3-0.6,0.5-1.1,0.6-1.6c0.3-0.8,0.5-1.5,1.1-2.2c0.5-0.5,1.2-1,1.7-1.5c0.8-0.7,1.7-1.8,1.2-2.7c-0.9-2-4.3-0.3-6,1.1
				c-1.5-1.3-4.3-3.1-5.7-1.3c-0.7,0.9,0.3,1.7,1.2,2.3c1.5,0.9,3.1,1.8,4.7,2.5c-0.1,0.1-0.1,0.2-0.2,0.3c-0.7,1.6-1.1,3.1-2.3,4.6
				c-0.6,0.8-1.5,1.7-2.9,2c-1.5,0.3-3.3-0.3-2.6-1.5c0.5-0.9-1.6-1.3-2.2-0.4C47.1,70.6,50.9,72.3,53.9,71.7L53.9,71.7z"/>
			<path id="XMLID_408_" class="st3" d="M22.7,64.7c1.1-0.2,2.1-0.7,3.2-0.9c1.1-0.3,2.2-0.4,3.4-0.4c2.2-0.1,4.3,0.4,6.4,0.6
				c0.4,0,0.5-0.6,0.2-0.8c-2-1.3-4.7-1.5-7.1-1.4c-2.2,0.2-4.9,0.7-6.7,2.1C21.8,64.2,22.3,64.8,22.7,64.7L22.7,64.7z"/>
			<path id="XMLID_407_" class="st3" d="M32.6,67.4c-1.5,0.1-3,0.5-4.4,1.1c-1.3,0.5-2.7,1.1-3.8,2c-0.4,0.4,0,1,0.5,0.9
				c1.4-0.3,2.7-1,4.1-1.6c1.3-0.5,2.6-0.9,3.8-1.5C33.3,68,33.1,67.4,32.6,67.4L32.6,67.4z"/>
			<path id="XMLID_406_" class="st3" d="M32.4,73.3c-1.6,0.4-2.6,2.2-3.6,3.5c-1.2,1.5-2.6,2.8-3.7,4.3c-0.3,0.4,0.3,0.9,0.7,0.7
				c1.6-0.9,2.9-2.3,4-3.7c1-1.3,2.2-2.7,3.1-4.1C33.1,73.6,32.8,73.2,32.4,73.3L32.4,73.3z"/>
			<path id="XMLID_405_" class="st3" d="M86.8,60.6c1.9,0.4,3.6,1.5,5.6,2c0.5,0.1,0.9-0.5,0.5-0.8c-1.6-1.4-4.1-2.3-6.2-2.6
				c-2.2-0.3-4.3,0.5-6.2,1.4c-0.4,0.2-0.1,0.8,0.3,0.7C82.8,60.8,84.8,60.2,86.8,60.6L86.8,60.6z"/>
			<path id="XMLID_404_" class="st3" d="M83.3,65.5c-0.4,0-0.5,0.6-0.1,0.6c1.8,0.4,3.6,0.9,5.2,1.7c1.6,0.8,3,1.8,4.4,2.8
				c0.5,0.3,0.9-0.4,0.6-0.8C91.1,66.9,87,65.4,83.3,65.5L83.3,65.5z"/>
			<path id="XMLID_403_" class="st3" d="M83.6,71.2c-0.4-0.2-0.7,0.6-0.3,0.7c1.6,0.7,3.1,1.8,4.3,3.1c1.2,1.3,2,2.9,3,4.3
				c0.2,0.3,0.7,0.2,0.7-0.2C90.9,75.4,86.9,72.4,83.6,71.2L83.6,71.2z"/>
		</g>
	</g>
</g>
</svg>
