<?xml version="1.0" encoding="utf-8"?>
<!-- Generator: Adobe Illustrator 19.0.0, SVG Export Plug-In . SVG Version: 6.00 Build 0)  -->
<svg version="1.1" id="Layer_1" xmlns="http://www.w3.org/2000/svg" xmlns:xlink="http://www.w3.org/1999/xlink" x="0px" y="0px"
	 viewBox="0 0 272.8 287.1" style="enable-background:new 0 0 272.8 287.1;" xml:space="preserve">
<style type="text/css">
	.st0{fill:#FE340B;}
	.st1{fill:#EFEEEA;}
	.st2{fill-rule:evenodd;clip-rule:evenodd;fill:#151011;}
	.st3{fill:#151011;}
</style>
<g id="XMLID_183_">
	<g id="XMLID_943_">
		<path id="XMLID_944_" d="M29.6,224.8l-12.1,12.7l12.6,13.8h1.7c0.9,0,1.6,0.3,2.1,0.8c0.6,0.5,0.8,1.2,0.8,2.1
			c0,0.9-0.3,1.6-0.8,2.1c-0.6,0.5-1.3,0.8-2.1,0.8H21.3c-0.9,0-1.6-0.3-2.1-0.8c-0.6-0.5-0.8-1.2-0.8-2.1c0-0.8,0.3-1.5,0.8-2.1
			c0.6-0.5,1.3-0.8,2.1-0.8h0.6l-10.5-11.6v11.6h1.2c0.9,0,1.6,0.3,2.1,0.8c0.6,0.5,0.8,1.2,0.8,2.1c0,0.9-0.3,1.6-0.8,2.1
			c-0.6,0.5-1.3,0.8-2.1,0.8H3c-0.9,0-1.6-0.3-2.1-0.8c-0.6-0.5-0.8-1.2-0.8-2.1c0-0.8,0.3-1.5,0.8-2.1c0.6-0.5,1.3-0.8,2.1-0.8h1.7
			v-26.6H3c-0.9,0-1.6-0.3-2.1-0.8c-0.6-0.5-0.8-1.2-0.8-2.1c0-0.8,0.3-1.5,0.8-2.1S2.1,219,3,219h8.9c0.9,0,1.6,0.3,2.1,0.8
			c0.6,0.5,0.8,1.2,0.8,2.1c0,0.9-0.3,1.6-0.8,2.1c-0.6,0.5-1.3,0.8-2.1,0.8h-0.6v11.6l10.6-11.6h-0.4c-0.9,0-1.6-0.3-2.1-0.8
			c-0.6-0.5-0.8-1.2-0.8-2.1c0-0.8,0.3-1.5,0.8-2.1s1.3-0.8,2.1-0.8h9.1c0.9,0,1.6,0.3,2.1,0.8s0.8,1.2,0.8,2.1
			c0,0.9-0.3,1.6-0.8,2.1c-0.6,0.5-1.3,0.8-2.1,0.8H29.6z"/>
		<path id="XMLID_946_" d="M42.1,224c3.1-3.7,7.6-5.5,13.4-5.5c5.8,0,10.2,1.8,13.4,5.5c3.2,3.7,4.7,8.4,4.7,14
			c0,5.7-1.6,10.4-4.7,14.1c-3.2,3.7-7.6,5.5-13.4,5.5c-5.8,0-10.2-1.8-13.4-5.5c-3.1-3.7-4.7-8.3-4.7-14.1
			C37.4,232.3,39,227.7,42.1,224z M47.3,247.9c1.9,2.6,4.7,3.8,8.2,3.8c3.6,0,6.4-1.3,8.3-3.8c1.9-2.6,2.9-5.8,2.9-9.8
			s-1-7.3-2.9-9.8c-1.9-2.6-4.7-3.8-8.3-3.8c-3.6,0-6.3,1.3-8.2,3.8s-2.9,5.8-2.9,9.8S45.3,245.3,47.3,247.9z"/>
		<path id="XMLID_949_" d="M76.9,222.2c0-0.9,0.2-1.6,0.7-2.2c0.5-0.6,1.2-0.9,2.1-1h26.7c1,0,1.7,0.4,2.2,1
			c0.5,0.6,0.7,1.4,0.7,2.2v6.4c0,0.9-0.3,1.7-0.8,2.3c-0.5,0.6-1.3,0.9-2.3,0.9s-1.7-0.3-2.2-0.9c-0.5-0.6-0.7-1.4-0.7-2.3v-3.7
			h-6.9v26.4h1.7c0.9,0,1.6,0.3,2.1,0.8c0.6,0.5,0.8,1.2,0.8,2.1c0,0.9-0.3,1.6-0.8,2.1c-0.6,0.5-1.3,0.8-2.1,0.8h-10
			c-0.9,0-1.6-0.3-2.1-0.8c-0.6-0.5-0.8-1.2-0.8-2.1c0-0.8,0.3-1.5,0.8-2.1c0.6-0.5,1.3-0.8,2.1-0.8h1.7v-26.4h-6.8v3.7
			c0,0.9-0.3,1.7-0.8,2.3c-0.5,0.6-1.3,0.9-2.3,0.9s-1.7-0.3-2.2-0.9c-0.5-0.6-0.7-1.4-0.7-2.3V222.2z"/>
		<path id="XMLID_951_" d="M112.9,245.1c-0.9,0-1.6-0.2-2.1-0.7c-0.6-0.5-0.8-1.2-0.8-2c0-0.8,0.3-1.5,0.8-2
			c0.6-0.5,1.3-0.7,2.1-0.7h13.4c0.9,0,1.6,0.2,2.1,0.7s0.8,1.2,0.8,2c0,0.9-0.3,1.6-0.8,2s-1.3,0.7-2.1,0.7H112.9z"/>
		<path id="XMLID_953_" d="M162.7,224.8l-9.1,21.3c-1.7,4-3.4,7-4.9,8.8c-1.6,1.8-3.6,2.7-6,2.7c-2.2,0-4-0.4-5.3-1.1
			c-1.9-1.1-2.6-2.5-1.9-4.2c0.6-1.5,1.8-2,3.6-1.4c0.2,0,0.5,0.1,1,0.3c0.5,0.2,0.9,0.3,1.2,0.4c0.3,0.1,0.7,0.1,1.1,0.1
			c0.9,0,1.7-0.4,2.4-1.1s1.3-1.9,1.9-3.4l-13-22.3h-0.8c-0.9,0-1.6-0.3-2.1-0.8c-0.6-0.5-0.8-1.2-0.8-2.1c0-0.8,0.3-1.5,0.8-2.1
			c0.6-0.5,1.3-0.8,2.1-0.8h9c0.9,0,1.6,0.3,2.1,0.8s0.8,1.2,0.8,2.1c0,0.9-0.3,1.6-0.8,2.1c-0.6,0.5-1.3,0.8-2.1,0.8H141l8.7,16.1
			l6.6-16.1h-0.9c-0.9,0-1.6-0.3-2.1-0.8c-0.6-0.5-0.8-1.2-0.8-2.1c0-0.8,0.3-1.5,0.8-2.1c0.6-0.5,1.3-0.8,2.1-0.8h8.3
			c0.9,0,1.6,0.3,2.1,0.8s0.8,1.2,0.8,2.1c0,0.9-0.3,1.6-0.8,2.1c-0.6,0.5-1.3,0.8-2.1,0.8H162.7z"/>
		<path id="XMLID_955_" d="M178.5,224.8v5.9c0,2.9,0.5,4.9,1.5,6c1,1.2,2.6,1.7,4.7,1.7c2.5,0,5.2-0.9,7.9-2.8v-10.9h-1.7
			c-0.9,0-1.6-0.3-2.1-0.8c-0.6-0.5-0.8-1.2-0.8-2.1c0-0.8,0.3-1.5,0.8-2.1c0.6-0.5,1.3-0.8,2.1-0.8h10c0.9,0,1.6,0.3,2.1,0.8
			s0.8,1.2,0.8,2.1c0,0.9-0.3,1.6-0.8,2.1c-0.6,0.5-1.3,0.8-2.1,0.8h-1.7v26.6h1.7c0.9,0,1.6,0.3,2.1,0.8c0.6,0.5,0.8,1.2,0.8,2.1
			c0,0.9-0.3,1.6-0.8,2.1c-0.6,0.5-1.3,0.8-2.1,0.8h-10.6c-0.9,0-1.6-0.3-2.1-0.8c-0.6-0.5-0.8-1.2-0.8-2.1c0-0.8,0.3-1.5,0.8-2.1
			c0.6-0.5,1.3-0.8,2.1-0.8h2.3v-9.8c-2.6,1.8-5.5,2.6-8.8,2.6c-3.9,0-6.9-1-8.9-2.9s-3-5.4-3-10.3v-6.2h-1.7
			c-0.9,0-1.6-0.3-2.1-0.8c-0.6-0.5-0.8-1.2-0.8-2.1c0-0.8,0.3-1.5,0.8-2.1s1.3-0.8,2.1-0.8h10c0.9,0,1.6,0.3,2.1,0.8
			c0.6,0.5,0.8,1.2,0.8,2.1c0,0.9-0.3,1.6-0.8,2.1c-0.6,0.5-1.3,0.8-2.1,0.8H178.5z"/>
		<path id="XMLID_957_" d="M230.9,224.9h-12.5v9.6h12.3c1,0,1.8,0.3,2.3,0.8c0.6,0.5,0.9,1.2,0.9,2.1c0,0.9-0.3,1.6-0.9,2.1
			c-0.6,0.6-1.3,0.8-2.3,0.8h-12.3v10.7h13v-2.3c0-0.9,0.3-1.7,0.8-2.3c0.5-0.6,1.2-0.9,2.2-0.9c1,0,1.8,0.3,2.3,0.9
			c0.5,0.6,0.8,1.4,0.8,2.3v5c0,0.9-0.3,1.7-0.8,2.3c-0.5,0.6-1.3,0.9-2.3,0.9h-24.3c-0.9,0-1.6-0.3-2.1-0.8
			c-0.6-0.5-0.8-1.2-0.8-2.1c0-0.8,0.3-1.5,0.8-2.1c0.6-0.5,1.3-0.8,2.1-0.8h1.7v-26.6h-1.7c-0.9,0-1.6-0.3-2.1-0.8
			c-0.6-0.5-0.8-1.2-0.8-2.1c0-0.8,0.3-1.5,0.8-2.1s1.3-0.8,2.1-0.8h23.7c1,0,1.8,0.3,2.3,0.9c0.5,0.6,0.8,1.4,0.8,2.3v4.6
			c0,0.9-0.3,1.7-0.8,2.3s-1.3,0.9-2.3,0.9c-1,0-1.7-0.3-2.2-0.9c-0.5-0.6-0.7-1.4-0.7-2.3V224.9z"/>
		<path id="XMLID_959_" d="M240.3,222.2c0-0.9,0.2-1.6,0.7-2.2c0.5-0.6,1.2-0.9,2.1-1h26.7c1,0,1.7,0.4,2.2,1
			c0.5,0.6,0.7,1.4,0.7,2.2v6.4c0,0.9-0.3,1.7-0.8,2.3c-0.5,0.6-1.3,0.9-2.3,0.9s-1.7-0.3-2.2-0.9c-0.5-0.6-0.7-1.4-0.7-2.3v-3.7
			h-6.9v26.4h1.7c0.9,0,1.6,0.3,2.1,0.8c0.6,0.5,0.8,1.2,0.8,2.1c0,0.9-0.3,1.6-0.8,2.1c-0.6,0.5-1.3,0.8-2.1,0.8h-10
			c-0.9,0-1.6-0.3-2.1-0.8c-0.6-0.5-0.8-1.2-0.8-2.1c0-0.8,0.3-1.5,0.8-2.1c0.6-0.5,1.3-0.8,2.1-0.8h1.7v-26.4h-6.8v3.7
			c0,0.9-0.3,1.7-0.8,2.3c-0.5,0.6-1.3,0.9-2.3,0.9s-1.7-0.3-2.2-0.9c-0.5-0.6-0.7-1.4-0.7-2.3V222.2z"/>
	</g>
	<g id="XMLID_898_">
		<path id="XMLID_899_" d="M12.8,266.3c-0.4,0.5-0.8,0.9-1.3,1.1c-0.5,0.2-1.2,0.3-2.1,0.5s-1.6,0.3-2.2,0.6
			c-1.8,0.8-2.9,2.8-3.1,6.1h0c0.7-1.7,2.6-2.9,4.6-2.9c3.2,0,5.1,2.2,5.1,5.4c0,1.5-0.5,2.8-1.6,3.9c-1,1.1-2.3,1.6-3.9,1.6
			c-1.7,0-3.1-0.6-4.1-1.8c-1-1.2-1.5-2.8-1.5-4.9c0-4.7,1.3-7.6,3.9-8.7c0.7-0.3,1.4-0.5,2.2-0.6c1.6-0.3,2.5-0.4,3.1-1.3
			L12.8,266.3z M8.4,281.4c1.2,0,2.2-0.4,3-1.2s1.2-1.8,1.2-3c0-2.6-1.5-4.3-4.1-4.3c-1.1,0-2.1,0.3-2.9,1c-0.8,0.7-1.2,1.4-1.4,2.3
			C4.2,279.4,5.9,281.4,8.4,281.4z"/>
		<path id="XMLID_902_" d="M28.1,271.6l-4.4,10.8c-0.8,1.9-1.4,3.1-2,3.8c-0.6,0.7-1.2,1-2,1c-0.6,0-1.2-0.2-1.8-0.5l0.4-1
			c0.5,0.2,0.9,0.4,1.3,0.4c1.1,0,1.9-0.9,2.8-3.1l0.2-0.6l-5.3-10.8h1.5l3.7,7.6l0.8,1.7c0.1-0.3,0.3-0.8,0.6-1.7l2.9-7.6H28.1z"/>
		<path id="XMLID_904_" d="M41.4,271.6l-4,5.2l4.3,5.5h-1.5l-3.7-4.8l-3.7,4.8h-1.5l4.3-5.5l-4-5.3h1.5l3.4,4.4l3.5-4.4H41.4z"/>
		<path id="XMLID_906_" d="M46.7,282.3v-10.8h6.5v1.2h-5.2v9.6H46.7z"/>
		<path id="XMLID_908_" d="M57.5,272.3c1.1-0.6,2.2-1,3.4-1c2.9,0,4,1.4,4,4.3v6.7h-1.2v-1.6c-0.9,1.2-2.1,1.8-3.7,1.8
			c-2,0-3.3-1.3-3.3-3.2c0-1.1,0.4-1.9,1.1-2.5s1.7-0.9,2.9-0.9c1.2,0,2.2,0.3,2.9,0.8c0-1.2,0-1.8-0.2-2.6c-0.3-1.2-1-1.6-2.6-1.7
			c-1,0-2,0.3-3,0.8L57.5,272.3z M63.7,279.6v-1.8c-0.8-0.6-1.7-0.9-2.8-0.9c-1.6,0-2.9,0.8-2.9,2.2c0,1.3,1,2.1,2.4,2.1
			C61.7,281.3,62.8,280.7,63.7,279.6z"/>
		<path id="XMLID_911_" d="M78.5,282.3v-9.5h-4.5l-0.1,2.3c-0.2,3-0.7,5.1-1.5,6c-0.7,1-1.4,1.2-2.4,1.2l-0.1-1.2
			c0.4,0,0.7-0.1,1.2-0.6c0.7-0.7,1.4-2.4,1.6-5.7l0.2-3.3h7v10.8H78.5z"/>
		<path id="XMLID_913_" d="M84.3,272.8v-1.2h9.8v1.2h-4.3v9.5h-1.2v-9.5H84.3z"/>
		<path id="XMLID_915_" d="M107.2,281c-1,1-2.3,1.5-4,1.5c-1.7,0-3.1-0.5-4.1-1.5c-1.1-1-1.6-2.4-1.6-4.1c0-1.6,0.5-3,1.4-4
			c1-1.1,2.3-1.6,4-1.6c1.4,0,2.6,0.5,3.5,1.3s1.4,2.1,1.4,3.5c0,0.4,0,0.7-0.1,1h-8.9c0.1,2.6,1.8,4.2,4.4,4.2
			c1.5,0,2.7-0.4,3.5-1.3L107.2,281z M98.9,276.2h7.7c0-2.3-1.5-3.7-3.7-3.7C100.6,272.5,99.1,274,98.9,276.2z"/>
		<path id="XMLID_918_" d="M113.2,287.1v-15.5h1.2v1.4c0.8-1,2.4-1.6,3.9-1.6s2.7,0.5,3.7,1.5c0.9,1,1.4,2.3,1.4,3.9
			c0,1.6-0.5,3-1.5,4.1c-1,1.1-2.3,1.6-4,1.6c-1.5,0-2.6-0.3-3.4-0.9v5.5H113.2z M114.5,274.2v6.2c1,0.6,2.1,1,3.3,1
			c1.3,0,2.3-0.4,3.1-1.3c0.8-0.8,1.2-1.9,1.2-3.3c0-2.6-1.5-4.3-4-4.3C116.7,272.5,115.2,273.3,114.5,274.2z"/>
		<path id="XMLID_921_" d="M137.9,280.8c-0.9,1.1-2.4,1.7-4.1,1.7c-1.7,0-3-0.5-4.1-1.5c-1.1-1-1.6-2.4-1.6-4.1c0-1.6,0.5-2.9,1.5-4
			c1-1.1,2.3-1.6,3.8-1.6c1.8,0,3.3,0.5,4.2,1.3l-0.6,1c-0.9-0.8-2-1.2-3.4-1.2c-1.2,0-2.2,0.4-3,1.3s-1.2,1.9-1.2,3.2
			c0,1.3,0.4,2.4,1.3,3.2c0.8,0.8,1.9,1.2,3.2,1.2c1.4,0,2.5-0.5,3.3-1.5L137.9,280.8z"/>
		<path id="XMLID_923_" d="M143,282.3v-10.8h1.2v10.8H143z M151.8,271.6l-5.3,5.1l5.7,5.6h-1.7l-5.6-5.5l5.2-5.2H151.8z"/>
		<path id="XMLID_926_" d="M158.2,282.3H157v-10.8h1.2v9l7.2-9h1.2v10.8h-1.2v-9L158.2,282.3z"/>
		<path id="XMLID_928_" d="M181.7,281c-1,1-2.3,1.5-4,1.5c-1.7,0-3.1-0.5-4.1-1.5c-1.1-1-1.6-2.4-1.6-4.1c0-1.6,0.5-3,1.4-4
			c1-1.1,2.3-1.6,4-1.6c1.4,0,2.6,0.5,3.5,1.3s1.4,2.1,1.4,3.5c0,0.4,0,0.7-0.1,1h-8.9c0.1,2.6,1.8,4.2,4.4,4.2
			c1.5,0,2.7-0.4,3.5-1.3L181.7,281z M173.3,276.2h7.7c0-2.3-1.5-3.7-3.7-3.7C175,272.5,173.6,274,173.3,276.2z"/>
		<path id="XMLID_931_" d="M205,271.6l-4.4,10.8c-0.8,1.9-1.4,3.1-2,3.8c-0.6,0.7-1.2,1-2,1c-0.6,0-1.2-0.2-1.8-0.5l0.4-1
			c0.5,0.2,0.9,0.4,1.3,0.4c1.1,0,1.9-0.9,2.8-3.1l0.2-0.6l-5.3-10.8h1.5l3.7,7.6l0.8,1.7c0.1-0.3,0.3-0.8,0.6-1.7l2.9-7.6H205z"/>
		<path id="XMLID_933_" d="M218.2,280.8c-0.9,1.1-2.4,1.7-4.1,1.7c-1.7,0-3-0.5-4.1-1.5c-1.1-1-1.6-2.4-1.6-4.1c0-1.6,0.5-2.9,1.5-4
			c1-1.1,2.3-1.6,3.8-1.6c1.8,0,3.3,0.5,4.2,1.3l-0.6,1c-0.9-0.8-2-1.2-3.4-1.2c-1.2,0-2.2,0.4-3,1.3s-1.2,1.9-1.2,3.2
			c0,1.3,0.4,2.4,1.3,3.2c0.8,0.8,1.9,1.2,3.2,1.2c1.4,0,2.5-0.5,3.3-1.5L218.2,280.8z"/>
		<path id="XMLID_935_" d="M230.6,282.3v-9.5H226l-0.1,2.3c-0.2,3-0.7,5.1-1.5,6c-0.7,1-1.4,1.2-2.4,1.2l-0.1-1.2
			c0.4,0,0.7-0.1,1.2-0.6c0.7-0.7,1.4-2.4,1.6-5.7l0.2-3.3h7v10.8H230.6z"/>
		<path id="XMLID_937_" d="M247.3,271.6l-4.4,10.8c-0.8,1.9-1.4,3.1-2,3.8c-0.6,0.7-1.2,1-2,1c-0.6,0-1.2-0.2-1.8-0.5l0.4-1
			c0.5,0.2,0.9,0.4,1.3,0.4c1.1,0,1.9-0.9,2.8-3.1l0.2-0.6l-5.3-10.8h1.5l3.7,7.6l0.8,1.7c0.1-0.3,0.3-0.8,0.6-1.7l2.9-7.6H247.3z"
			/>
		<path id="XMLID_939_" d="M251.9,282.3v-10.8h6.5v1.2h-5.2v9.6H251.9z"/>
		<path id="XMLID_941_" d="M264,282.3h-1.2v-10.8h1.2v9l7.2-9h1.2v10.8h-1.2v-9L264,282.3z"/>
	</g>
</g>
<path id="XMLID_179_" class="st0" d="M218.3,171.4c0.7-3.3-3.1-7.9-5-9.8c-2.8,2.1-5.7,4.1-8.4,6.2c-4.6,3.4-9.1,6.8-14.1,9.6
	c-16.6,9.3-36.1,12.5-55,11.6c-10.4-0.5-20.7-2.3-30.7-4.9c-2.2-0.5-4.3-1.1-6.4-1.8c-9.7-1.7-19.4-5.3-27.9-10.3
	c-4.7-2.7-9.9-6.3-14.1-10.7c0,1.9,0.1,3.9,0.2,5.8c0.3,3.1,1.1,6.3,3.1,8.8c2.1,2.5,5,4.1,7.8,5.6c3.1,1.6,6.2,3.1,9.3,4.5
	c11.3,5.2,23,9.6,35.2,12.3c12.8,2.8,25.6,3.1,38.5,1.7c6.5-0.7,13.1-1.3,19.5-2.7c6.3-1.3,11.9-4.3,17.6-7.2
	c5.4-2.8,10.8-5.5,16.1-8.3c5.1-2.7,9.6-6,14.2-9.4C218.2,172.2,218.2,171.8,218.3,171.4z M87.7,185.2c-0.5,0.1-1,0.1-1.6,0.1
	c-3.1,0-6.3-1.5-9.1-2.6c-3.5-1.4-6.3-3.4-9.2-5.7c-0.6-0.4-0.1-1.4,0.6-1.4c0.1,0,0.2,0,0.2,0c3.2,1.3,6.6,2.3,9.8,3.4
	c3.1,1.1,6.9,1.4,9.6,3.3C89.1,183.1,89.1,185,87.7,185.2z M215.8,168.3c-0.6,2.8-3.3,4.6-5.3,6.4c-2.2,1.9-4.5,3.6-7,5
	c-5.2,3-10.7,5.2-16,7.8c-0.3,0.1-0.5,0.2-0.7,0.2c-1.4,0-2.2-1.9-0.8-2.8c4.9-3.2,9.7-6.4,14.4-9.7c2.4-1.7,4.6-3.7,6.8-5.7
	c2-1.8,3.8-3.6,6.6-3.9c0.1,0,0.1,0,0.2,0C215.3,165.7,216.1,167.2,215.8,168.3z"/>
<g id="XMLID_144_">
	<g id="XMLID_167_">
		<path id="XMLID_178_" class="st0" d="M36,4.1c-0.7-0.6-1.5-1.3-2.2-1.9c1.8,1.6,3.3,3.6,4.7,5.5c1.9,2.5,3.8,5,5.6,7.6
			c0.5-0.4,1.2-0.7,1.7-1.1c0.1-0.1,0.2-0.1,0.3-0.2c-1.6-1.7-3.2-3.5-4.8-5.1C39.6,7.3,37.8,5.7,36,4.1z"/>
		<path id="XMLID_177_" class="st0" d="M49.5,18.3c-0.5,0.5-1,0.9-1.6,1.2c-0.2,0.1-0.4,0.2-0.5,0.2c0.3,0.4,0.6,0.9,1,1.3
			c0.2-0.3,0.5-0.6,0.8-0.8c0.4-0.4,0.9-0.7,1.4-0.9c-0.3-0.4-0.6-0.7-0.9-1.1L49.5,18.3z"/>
		<path id="XMLID_174_" class="st0" d="M33.8,0c1.8,1.1,3.6,2.7,4.5,3.5c4.5,3.7,8.6,8,12.3,12.5c7.2,8.6,13.8,18.2,19.4,27.9
			c2-2.1,4.2-4.1,6.5-5.9c2.3-1.7,4.7-3.3,7.2-4.7c0.5-0.2,0.9-0.5,1.4-0.8C72.8,23.4,44.1,3.2,33.8,0z M74.7,32.7
			c-2.5-1.3-4.6-4.1-6.8-5.9c-2.4-2.1-4.9-4.2-7.4-6.1c-0.4-0.3,0.1-1,0.6-0.8c2.7,1.6,5.4,3.3,7.9,5.2c2.3,1.8,5.5,3.9,6.8,6.5
			C76.2,32.3,75.5,33,74.7,32.7z"/>
		<path id="XMLID_173_" class="st0" d="M60.6,39.5c0.6-0.9,1.4-1.8,2.3-2.5c-0.4-0.6-0.8-1.3-1.2-1.9c-0.5,0.5-1.2,0.9-1.7,1.3
			c-0.3,0.2-0.5,0.5-0.8,0.7C59.6,37.9,60.1,38.7,60.6,39.5z"/>
		<path id="XMLID_172_" class="st0" d="M50.5,21.9c-0.4,0.3-0.6,0.6-1,0.9c2.9,4.1,5.7,8.2,8.4,12.5c0.1-0.2,0.3-0.3,0.4-0.4
			c0.6-0.6,1.2-1.3,2-1.7c-2.7-4.1-5.4-8.2-8.4-12.1C51.5,21.3,51,21.5,50.5,21.9z"/>
		<path id="XMLID_171_" class="st0" d="M46.9,16.3c-0.5,0.3-0.9,0.6-1.4,0.8c0.2,0.3,0.5,0.7,0.7,1l0.2-0.1c0.2-0.1,0.4-0.1,0.6-0.2
			c0.4-0.2,0.8-0.5,1.1-0.8c0.1-0.1,0.2-0.2,0.3-0.2c-0.3-0.3-0.5-0.6-0.8-0.9C47.4,16,47.1,16.1,46.9,16.3z"/>
		<path id="XMLID_168_" class="st0" d="M38.2,11.1c-2.9-3.9-5.8-7.4-9.6-10.4c-0.1,0.2-0.3,0.3-0.4,0.5c-3.7,5-2.2,20,3.4,33.5
			c5.2,12.6,7.9,25.1,10.6,37.1c0.6,2.9,1.3,5.8,2,8.8c1.1-1.7,2.2-3.3,3.3-5c1.9-2.8,3.8-5.7,5.7-8.5c3.6-5.4,7.2-10.9,11-16.2
			c-4.6-9.3-10.2-18.1-16.2-26.6C44.7,19.9,41.4,15.5,38.2,11.1z M44.2,67.3c-0.2,0-0.4-0.1-0.4-0.3c-0.4-2.8-0.9-5.5-1.6-8.2
			c-1.1-4.5-2.5-9-3.9-13.4c-1.2-3.6-2.4-7.3-3.4-10.9c-0.2-0.8-0.5-1.6-0.7-2.5s-0.5-1.7-0.7-2.5c-0.4-1.7-0.7-3.4-0.7-5.1
			c0-0.8,1.2-1.3,1.6-0.4c1.5,3.4,2,7.2,3.1,10.8c1.1,3.5,2.2,7,3.3,10.5c0.8,2.7,1.6,5.3,2.2,8c1,4.5,1.7,9,1.7,13.7
			C44.6,67.1,44.4,67.3,44.2,67.3z"/>
	</g>
	<g id="XMLID_145_">
		<path id="XMLID_166_" class="st0" d="M239,4.1c0.7-0.6,1.5-1.3,2.2-1.9c-1.8,1.6-3.3,3.6-4.7,5.5c-1.9,2.5-3.8,5-5.6,7.6
			c-0.5-0.4-1.2-0.7-1.7-1.1c-0.1-0.1-0.2-0.1-0.3-0.2c1.6-1.7,3.2-3.5,4.8-5.1C235.4,7.3,237.2,5.7,239,4.1z"/>
		<path id="XMLID_165_" class="st0" d="M225.5,18.3c0.5,0.5,1,0.9,1.6,1.2c0.2,0.1,0.4,0.2,0.5,0.2c-0.3,0.4-0.6,0.9-1,1.3
			c-0.2-0.3-0.5-0.6-0.8-0.8c-0.4-0.4-0.9-0.7-1.4-0.9c0.3-0.4,0.6-0.7,0.9-1.1L225.5,18.3z"/>
		<path id="XMLID_162_" class="st0" d="M189.8,32.5c0.5,0.3,1,0.5,1.4,0.8c2.5,1.4,4.9,3,7.2,4.7c2.3,1.8,4.5,3.8,6.5,5.9
			c5.6-9.7,12.3-19.3,19.4-27.9c3.7-4.5,7.8-8.7,12.3-12.5c0.9-0.8,2.7-2.4,4.5-3.5C230.9,3.2,202.2,23.4,189.8,32.5z M199.2,31.6
			c1.3-2.6,4.5-4.7,6.8-6.5c2.5-2,5.1-3.7,7.9-5.2c0.5-0.3,1,0.4,0.6,0.8c-2.5,2-5,4-7.4,6.1c-2.2,1.9-4.3,4.7-6.8,5.9
			C199.5,33,198.8,32.3,199.2,31.6z"/>
		<path id="XMLID_157_" class="st0" d="M214.4,39.5c-0.6-0.9-1.4-1.8-2.3-2.5c0.4-0.6,0.8-1.3,1.2-1.9c0.5,0.5,1.2,0.9,1.7,1.3
			c0.3,0.2,0.5,0.5,0.8,0.7C215.4,37.9,214.9,38.7,214.4,39.5z"/>
		<path id="XMLID_150_" class="st0" d="M224.5,21.9c0.4,0.3,0.6,0.6,1,0.9c-2.9,4.1-5.7,8.2-8.4,12.5c-0.1-0.2-0.3-0.3-0.4-0.4
			c-0.6-0.6-1.2-1.3-2-1.7c2.7-4.1,5.4-8.2,8.4-12.1C223.5,21.3,224,21.5,224.5,21.9z"/>
		<path id="XMLID_149_" class="st0" d="M228.1,16.3c0.5,0.3,0.9,0.6,1.4,0.8c-0.2,0.3-0.5,0.7-0.7,1l-0.2-0.1
			c-0.2-0.1-0.4-0.1-0.6-0.2c-0.4-0.2-0.8-0.5-1.1-0.8c-0.1-0.1-0.2-0.2-0.3-0.2c0.3-0.3,0.5-0.6,0.8-0.9
			C227.6,16,227.9,16.1,228.1,16.3z"/>
		<path id="XMLID_146_" class="st0" d="M227.1,24.4c-6,8.5-11.6,17.2-16.2,26.6c3.9,5.2,7.4,10.7,11,16.2c1.9,2.8,3.8,5.7,5.7,8.5
			c1.1,1.7,2.3,3.3,3.3,5c0.7-2.9,1.3-5.9,2-8.8c2.7-12.1,5.4-24.5,10.6-37.1c5.5-13.5,7-28.5,3.4-33.5c-0.1-0.2-0.3-0.4-0.4-0.5
			c-3.8,3-6.7,6.5-9.6,10.4C233.6,15.5,230.3,19.9,227.1,24.4z M230.4,66.9c0-4.7,0.7-9.2,1.7-13.7c0.6-2.7,1.4-5.3,2.2-8
			c1.1-3.5,2.3-7,3.3-10.5c1.1-3.5,1.6-7.4,3.1-10.8c0.4-0.8,1.6-0.3,1.6,0.4c0,1.7-0.3,3.4-0.7,5.1c-0.2,0.9-0.5,1.7-0.7,2.5
			s-0.5,1.7-0.7,2.5c-1.1,3.7-2.3,7.3-3.4,10.9c-1.4,4.4-2.8,8.9-3.9,13.4c-0.7,2.7-1.2,5.4-1.6,8.2c0,0.2-0.2,0.3-0.4,0.3
			C230.5,67.3,230.4,67.1,230.4,66.9z"/>
	</g>
</g>
<ellipse id="XMLID_142_" class="st1" cx="137.5" cy="107.8" rx="91.9" ry="78.1"/>
<path id="XMLID_140_" class="st0" d="M192.6,58.1c-6.6-3.7-13.9-6.3-21.4-7.5c-6.8-1-15.3-2-21.7,1c-6.1,2.8-7,9.7-6.2,15.9
	c-0.2,2.6,0,5.3,0.4,8c1,6.9,3.7,13.7,7.8,19.4c8.3,11.3,21.3,18.4,35.3,19.5c6.9,0.5,14.5-0.7,20.1-5c5.6-4.2,8.5-10.9,8.8-17.9
	C216,76.7,204.5,64.8,192.6,58.1L192.6,58.1z"/>
<path id="XMLID_139_" class="st0" d="M100.8,58.7c6.6,0.5,13.7-0.7,19.1-4.7c5.3-4,8.1-10.4,8.3-16.9c0.1-2.4-0.2-4.7-0.7-6.9
	C108,32,90.3,39,76.5,49.5C83.5,54.8,91.9,58.1,100.8,58.7z"/>
<path id="XMLID_138_" class="st0" d="M90.1,128.2c-6.3-3.6-13.2-6-20.3-7.1c-6.4-1-14.5-1.9-20.6,0.9c-0.7,0.3-1.3,0.7-1.8,1.1
	c5.8,25,25.7,45.8,52.3,56c1.4-0.6,2.7-1.4,3.9-2.3c5.3-4,8.1-10.4,8.3-16.9C112.3,145.9,101.4,134.6,90.1,128.2z"/>
<g id="XMLID_127_">
	<path id="XMLID_136_" class="st2" d="M98.5,72.3c-4.6,0-8.8,1.9-11.8,4.9c-3,3-4.9,7.2-4.9,11.8c0,1.4,1.2,2.6,2.6,2.6
		S87,90.4,87,89c0-3.2,1.3-6.1,3.4-8.2c2.1-2.1,5-3.4,8.2-3.4c3.2,0,6.1,1.3,8.2,3.4c2.1,2.1,3.4,5,3.4,8.2c0,1.4,1.2,2.6,2.6,2.6
		c1.4,0,2.6-1.2,2.6-2.6c0-4.6-1.9-8.8-4.9-11.8C107.3,74.2,103.1,72.3,98.5,72.3z"/>
	<path id="XMLID_129_" class="st2" d="M214,73.3v-3c0-6.4-1.8-7.2-1.8-7.2c-3.8-1.2-7.8-1.8-7.8-1.8h-50.7c-6,0-7,1.2-7,1.2
		c-1,1.6-4.2,2.2-4.2,2.2h-4.1h-1.5h-4.1c0,0-3.2-0.6-4.2-2.2c0,0-1-1.2-7-1.2H70.7c0,0-4,0.6-7.8,1.8c0,0-1.8,0.8-1.8,7.2v3
		c0,0-0.4,2.6,2,3.6c0,0,6.2,1.2,6.2,8.8v4.6c0,0,1.8,12.2,14.2,12.2h25.3c0,0,18.2-0.6,18.2-10.6v-6c0,0-0.8-11.5,10.5-12
		c11.2,0.5,10.5,12,10.5,12v6c0,10,18.2,10.6,18.2,10.6h25.3c12.4,0,14.2-12.2,14.2-12.2v-4.6c0-7.6,6.2-8.8,6.2-8.8
		C214.4,75.9,214,73.3,214,73.3z M125,73.5v12c0,14.6-16.8,15-16.8,15h-17c-19.9,0-19.1-13.8-19.1-13.8V73.3c0-9,4.6-9.4,4.6-9.4
		h31.9C125.2,63.9,125,73.5,125,73.5z M183.9,100.6h-17c0,0-16.8-0.4-16.8-15v-12c0,0-0.2-9.6,16.4-9.6h31.9c0,0,4.6,0.4,4.6,9.4
		v13.4C202.9,86.7,203.7,100.6,183.9,100.6z"/>
	<path id="XMLID_128_" class="st2" d="M177.4,72.3c-4.6,0-8.8,1.9-11.8,4.9c-3,3-4.9,7.2-4.9,11.8c0,1.4,1.2,2.6,2.6,2.6
		c1.4,0,2.6-1.2,2.6-2.6c0-3.2,1.3-6.1,3.4-8.2c2.1-2.1,5-3.4,8.2-3.4c3.2,0,6.1,1.3,8.2,3.4c2.1,2.1,3.4,5,3.4,8.2
		c0,1.4,1.2,2.6,2.6,2.6c1.4,0,2.6-1.2,2.6-2.6c0-4.6-1.9-8.8-4.9-11.8C186.2,74.2,182,72.3,177.4,72.3z"/>
</g>
<g id="XMLID_115_">
	<path id="XMLID_123_" class="st3" d="M140.3,118.1c1.2-1.5,2.8-2.7,5-3.6c1.5-0.6,1.4-0.6,0.5,0.3c-0.5,0.5-0.9,1.1-1.4,1.6
		c-1.2,1.1-2.4,2-3.4,3c-0.5-0.3-1-0.6-1.5-0.8C139.8,118.5,140.1,118.3,140.3,118.1L140.3,118.1z M130,138.2
		c4.2-0.9,7.1-3.4,9.1-6.2c1.1,2,3.2,3.8,5.6,4.7c4.2,1.6,10.9,0.2,12.8-2.8c0.4-0.6-0.2-1.2-1.2-1c-3.7,0.5-7.2,3.3-10.8,1
		c-2.4-1.5-3.2-3.6-4.5-5.4c0.5-1.1,0.9-2.2,1.2-3.2c0.5-1.5,0.9-3,2.2-4.3c1-1,2.3-1.9,3.3-2.8c1.6-1.4,3.2-3.4,2.4-5.2
		c-1.8-3.9-8.2-0.5-11.6,2.1c-2.9-2.6-8.3-6-11-2.6c-1.4,1.8,0.6,3.4,2.4,4.5c2.9,1.8,5.9,3.4,9.1,4.9c-0.1,0.2-0.2,0.4-0.3,0.7
		c-1.3,3.1-2.2,6-4.4,8.9c-1.2,1.6-2.9,3.3-5.6,4c-2.9,0.7-6.3-0.6-5-2.8c1-1.8-3.2-2.5-4.2-0.8C117,136.1,124.2,139.4,130,138.2
		L130,138.2z"/>
	<path id="XMLID_122_" class="st3" d="M69.9,124.8c2.1-0.5,4.1-1.3,6.2-1.8c2.1-0.5,4.3-0.8,6.5-0.9c4.2-0.2,8.2,0.8,12.4,1.2
		c0.9,0.1,1-1.1,0.4-1.5c-3.9-2.6-9.1-3-13.6-2.7c-4.3,0.3-9.4,1.3-12.8,4C68.1,123.8,69,124.9,69.9,124.8L69.9,124.8z"/>
	<path id="XMLID_121_" class="st3" d="M89,129.9c-2.9,0.1-5.7,1-8.4,2.1c-2.5,0.9-5.2,2-7.3,3.8c-0.8,0.7,0.1,1.9,1,1.7
		c2.7-0.6,5.3-2,7.9-3c2.5-1,5-1.7,7.3-2.9C90.2,131.1,89.9,129.8,89,129.9L89,129.9z"/>
	<path id="XMLID_120_" class="st3" d="M88.6,141.3c-3.1,0.8-5,4.3-6.9,6.7c-2.3,2.9-5,5.4-7.2,8.4c-0.6,0.8,0.5,1.7,1.3,1.3
		c3.1-1.7,5.5-4.4,7.8-7.2c2-2.5,4.3-5.2,5.9-8C89.8,141.8,89.3,141.1,88.6,141.3L88.6,141.3z"/>
	<path id="XMLID_119_" class="st3" d="M193.4,116.8c3.7,0.8,7,3,10.7,3.8c0.9,0.2,1.7-1,0.9-1.6c-3.1-2.6-8-4.4-12-4.9
		c-4.2-0.6-8.2,1-11.9,2.8c-0.8,0.4-0.2,1.5,0.6,1.3C185.6,117.2,189.5,116,193.4,116.8L193.4,116.8z"/>
	<path id="XMLID_118_" class="st3" d="M186.6,126.2c-0.7,0-0.9,1.1-0.2,1.2c3.4,0.7,6.9,1.7,10,3.2c3,1.5,5.7,3.5,8.5,5.3
		c1,0.6,1.8-0.7,1.2-1.5C201.6,128.9,193.7,126.1,186.6,126.2L186.6,126.2z"/>
	<path id="XMLID_117_" class="st3" d="M187.2,137.3c-0.8-0.3-1.4,1.1-0.6,1.4c3.1,1.4,5.9,3.5,8.2,6c2.4,2.5,3.8,5.6,5.8,8.3
		c0.4,0.5,1.4,0.4,1.3-0.4C201.3,145.2,193.6,139.6,187.2,137.3L187.2,137.3z"/>
</g>
</svg>
