<?xml version="1.0" encoding="utf-8"?>
<!-- Generator: Adobe Illustrator 19.0.0, SVG Export Plug-In . SVG Version: 6.00 Build 0)  -->
<svg version="1.1" id="Layer_1" xmlns="http://www.w3.org/2000/svg" xmlns:xlink="http://www.w3.org/1999/xlink" x="0px" y="0px"
	 viewBox="0 0 44.1 44.1" style="enable-background:new 0 0 44.1 44.1;" xml:space="preserve">
<style type="text/css">
	.st0{fill:#7D7D7D;}
	.st1{fill:#FFFFFF;}
</style>
<g id="XMLID_87_">
	<circle id="XMLID_73_" class="st0" cx="22" cy="22" r="22"/>
	<path id="XMLID_177_" class="st1" d="M35.7,14.1c-0.9,0.4-2,0.7-3,0.8c1.1-0.7,1.9-1.7,2.3-2.9c-1,0.6-2.1,1-3.3,1.3
		c-1-1-2.3-1.7-3.8-1.7c-2.9,0-5.3,2.4-5.3,5.3c0,0.4,0,0.8,0.1,1.2c-4.4-0.2-8.2-2.3-10.8-5.5c-0.5,0.8-0.7,1.7-0.7,2.6
		c0,1.8,0.9,3.4,2.3,4.4c-0.9,0-1.7-0.3-2.4-0.7V19c0,2.5,1.8,4.7,4.2,5.2c-0.4,0.1-0.9,0.2-1.4,0.2c-0.3,0-0.7,0-1-0.1
		c0.7,2.1,2.6,3.6,4.9,3.7c-1.8,1.4-4.1,2.2-6.5,2.2c-0.4,0-0.8,0-1.3-0.1c2.3,1.5,5.1,2.4,8.1,2.4c9.7,0,15-8,15-15l0-0.7
		C34.1,16.1,35,15.1,35.7,14.1L35.7,14.1z M35.7,14.1"/>
</g>
</svg>
