<?xml version="1.0" encoding="utf-8"?>
<!-- Generator: Adobe Illustrator 19.0.0, SVG Export Plug-In . SVG Version: 6.00 Build 0)  -->
<svg version="1.1" id="Layer_1" xmlns="http://www.w3.org/2000/svg" xmlns:xlink="http://www.w3.org/1999/xlink" x="0px" y="0px"
	 viewBox="0 0 44.1 43.7" style="enable-background:new 0 0 44.1 43.7;" xml:space="preserve">
<style type="text/css">
	.st0{fill:#7D7D7D;}
	.st1{fill:#FFFFFF;}
</style>
<g id="XMLID_121_">
	<circle id="XMLID_18_" class="st0" cx="22" cy="22" r="22"/>
	<path id="XMLID_109_" class="st1" d="M32,9.2H12.1c-1.4,0-2.6,1.1-2.6,2.6v19.9c0,1.4,1.1,2.6,2.6,2.6H32c1.4,0,2.6-1.1,2.6-2.6
		V11.8C34.5,10.4,33.4,9.2,32,9.2L32,9.2z M23.9,13.4h1.2v3.8c0,0.7,0,0.7,0.1,0.8c0,0.1,0.1,0.3,0.4,0.3c0.3,0,0.4-0.2,0.4-0.3
		c0-0.1,0-0.1,0-0.8v-3.8h1.2v5.8H26l0-0.3l-0.4-0.2c-0.1,0.2-0.2,0.3-0.3,0.4c-0.1,0.1-0.3,0.1-0.5,0.1c-0.2,0-0.4,0-0.5-0.1
		c-0.1-0.1-0.2-0.2-0.3-0.3C24,18.7,24,18.5,24,18.4c0-0.2,0-0.6,0-1.1V13.4z M19.7,15.8c0-0.6,0.1-1.1,0.1-1.4
		c0.1-0.3,0.3-0.5,0.5-0.7c0.2-0.2,0.6-0.3,1-0.3c0.3,0,0.6,0.1,0.9,0.2c0.2,0.1,0.4,0.3,0.5,0.5c0.1,0.2,0.2,0.4,0.3,0.6
		c0,0.2,0.1,0.6,0.1,1v1c0,0.6,0,1-0.1,1.3c0,0.2-0.1,0.5-0.3,0.7c-0.1,0.2-0.3,0.4-0.5,0.5c-0.2,0.1-0.5,0.2-0.8,0.2
		c-0.3,0-0.6,0-0.8-0.1c-0.2-0.1-0.4-0.2-0.5-0.4c-0.1-0.2-0.2-0.4-0.2-0.6c-0.1-0.3-0.1-0.7-0.1-1.2V15.8z M16.9,11.4l1,3.2
		c0.2-0.8,0.5-2,0.8-3.2h0.9l-1.2,4.5l0,0v3.2h-1V16l0,0L16,11.4H16.9z M31.2,29.2c-0.2,1.4-1.4,2.6-2.9,2.7
		c-4.2,0.2-8.4,0.2-12.6,0c-1.4-0.1-2.7-1.3-2.9-2.7c-0.2-2.3-0.2-4.5,0-6.8c0.2-1.4,1.4-2.6,2.9-2.7c4.2-0.2,8.4-0.2,12.6,0
		c1.4,0.1,2.7,1.3,2.9,2.7C31.3,24.7,31.3,26.9,31.2,29.2L31.2,29.2z M21.4,18.6c0.2,0,0.3-0.1,0.4-0.3c0-0.1,0.1-0.2,0.1-0.7v-2.5
		c0-0.5,0-0.7-0.1-0.8c-0.1-0.2-0.2-0.3-0.4-0.3c-0.2,0-0.3,0.1-0.4,0.3c0,0.1-0.1,0.3-0.1,0.8v2.4c0,0.5,0,0.6,0.1,0.7
		C21.1,18.5,21.2,18.6,21.4,18.6L21.4,18.6z M14.5,22.9h1.2v6.7H17v-6.7h1.2v-1.3h-3.6V22.9z M20.4,27.3c0,0.7,0,0.9,0,1
		c0,0.2-0.2,0.3-0.4,0.3c-0.2,0-0.3-0.1-0.4-0.3c0-0.1,0-0.3,0-0.9v-3.8h-1.2v4.1c0,0.6,0,0.9,0,1.1c0,0.2,0.1,0.3,0.1,0.5
		c0.1,0.1,0.1,0.2,0.3,0.3c0.1,0.1,0.3,0.1,0.5,0.1c0.2,0,0.3,0,0.4-0.1c0.1-0.1,0.2-0.2,0.3-0.4l0.4,0.1l0,0.3h1.2v-6h-1.2V27.3z
		 M25.6,23.8c-0.1-0.1-0.2-0.2-0.3-0.3c-0.1-0.1-0.3-0.1-0.5-0.1c-0.1,0-0.3,0-0.4,0.1c-0.1,0.1-0.3,0.2-0.4,0.4l-0.4,0.6v-2.9h-1.2
		v8h1.1l0.1-0.4l0.1-0.5l0.3,0.4c0.1,0.2,0.2,0.3,0.4,0.4c0.1,0.1,0.3,0.1,0.4,0.1c0.2,0,0.4-0.1,0.5-0.2c0.2-0.2,0.3-0.3,0.3-0.5
		c0-0.2,0.1-0.6,0.1-0.6v-3.2c0,0,0-0.3,0-1C25.7,24.1,25.7,24,25.6,23.8L25.6,23.8z M24.6,27.3c0,0.6,0,0.7-0.1,0.8
		c-0.1,0.2-0.2,0.3-0.4,0.3c-0.2,0-0.3-0.1-0.4-0.3c0-0.1-0.1-0.3-0.1-0.8v-1.6c0-0.5,0-0.7,0-0.8c0.1-0.2,0.2-0.3,0.4-0.3
		c0.2,0,0.3,0.1,0.4,0.3c0,0.1,0.1,0.3,0.1,0.8V27.3z M27.8,26.7h2v-0.7c0-0.6-0.1-1.3-0.2-1.6c-0.1-0.3-0.3-0.5-0.5-0.7
		c-0.2-0.2-0.6-0.3-1-0.3c-0.3,0-0.6,0.1-0.8,0.2c-0.2,0.2-0.4,0.4-0.5,0.6c-0.1,0.3-0.2,0.7-0.2,1.5v1.9c0,0.2,0,0.6,0.1,0.8
		c0,0.2,0.1,0.4,0.3,0.6c0.1,0.2,0.3,0.3,0.5,0.4c0.2,0.1,0.5,0.2,0.8,0.2c0.3,0,0.6-0.1,0.8-0.2c0.2-0.1,0.4-0.3,0.5-0.5
		c0.1-0.2,0.2-0.4,0.3-0.6c0-0.2,0.1-0.5,0.1-0.9v-0.3h-1.1v0.7c0,0.3,0,0.6-0.1,0.7c-0.1,0.2-0.2,0.3-0.4,0.3
		c-0.2,0-0.3-0.1-0.4-0.2c0-0.1-0.1-0.2-0.1-0.6V26.7z M27.8,25.9v-0.7c0-0.5,0-0.4,0-0.5c0.1-0.2,0.2-0.3,0.4-0.3
		c0.2,0,0.3,0.1,0.4,0.3c0,0.1,0,0,0,0.5v0.9h-0.9V25.9z M27.8,25.9"/>
</g>
</svg>
